<?xml version="1.0" encoding="utf-8"?>
<!-- Generator: Adobe Illustrator 18.0.0, SVG Export Plug-In . SVG Version: 6.00 Build 0)  -->
<!DOCTYPE svg PUBLIC "-//W3C//DTD SVG 1.1//EN" "http://www.w3.org/Graphics/SVG/1.1/DTD/svg11.dtd">
<svg version="1.1" id="Layer_1" xmlns="http://www.w3.org/2000/svg" xmlns:xlink="http://www.w3.org/1999/xlink" x="0px" y="0px"
	 viewBox="0 0 1400 1400" enable-background="new 0 0 1400 1400" xml:space="preserve">
<linearGradient id="SVGID_1_" gradientUnits="userSpaceOnUse" x1="700" y1="30.003" x2="700" y2="1282.0487">
	<stop  offset="0" style="stop-color:#89D6F7"/>
	<stop  offset="2.289356e-002" style="stop-color:#8DD8F7"/>
	<stop  offset="0.1709" style="stop-color:#A1E0F7"/>
	<stop  offset="0.3394" style="stop-color:#AFE6F7"/>
	<stop  offset="0.5443" style="stop-color:#B7EAF7"/>
	<stop  offset="0.8877" style="stop-color:#BAEBF7"/>
</linearGradient>
<rect x="0" y="0" fill="url(#SVGID_1_)" width="1400" height="1400"/>
<g>
	<g>
		<polyline fill="none" stroke="#11304C" stroke-width="10" stroke-miterlimit="10" points="1367.6,1361.6 1367.6,1367.6 
			1361.6,1367.6 		"/>
		
			<line fill="none" stroke="#11304C" stroke-width="10" stroke-miterlimit="10" stroke-dasharray="11.9201,11.9201" x1="1349.6" y1="1367.6" x2="44.4" y2="1367.6"/>
		<polyline fill="none" stroke="#11304C" stroke-width="10" stroke-miterlimit="10" points="38.4,1367.6 32.4,1367.6 32.4,1361.6 		
			"/>
		
			<line fill="none" stroke="#11304C" stroke-width="10" stroke-miterlimit="10" stroke-dasharray="11.9201,11.9201" x1="32.4" y1="1349.6" x2="32.4" y2="44.4"/>
		<polyline fill="none" stroke="#11304C" stroke-width="10" stroke-miterlimit="10" points="32.4,38.4 32.4,32.4 38.4,32.4 		"/>
		
			<line fill="none" stroke="#11304C" stroke-width="10" stroke-miterlimit="10" stroke-dasharray="11.9201,11.9201" x1="50.4" y1="32.4" x2="1355.6" y2="32.4"/>
		<polyline fill="none" stroke="#11304C" stroke-width="10" stroke-miterlimit="10" points="1361.6,32.4 1367.6,32.4 1367.6,38.4 		
			"/>
		
			<line fill="none" stroke="#11304C" stroke-width="10" stroke-miterlimit="10" stroke-dasharray="11.9201,11.9201" x1="1367.6" y1="50.4" x2="1367.6" y2="1355.6"/>
	</g>
</g>
<path fill="#F5FEFF" d="M192.9,811.3c5.5-1.5,11.3-0.3,16.9,0.9c-11.1-9.4-10-29.4,2-37.5c10.6-7.2,26.7-2.9,33.4,7.8
	c-5.2-13.7-0.8-30.8,10.9-39.7c13-10,33.4-8.7,45,2.9c11.6,11.6,13,31.9,3,45c10.3-0.5,21.1-0.3,30.3,4.2c0.2,0.1,0.4,0.2,0.6,0.3
	c12.3,9.9,12.1,33.7-2.8,40.9c-1.2,0.6-1.7,1.5-1.7,2.4c-1.7,0.8-3.5,1.4-5.2,2c-40.3,13.6-84.3,4.2-125.8-5.3
	c-6.9-1.6-15.2-4.6-16.2-11.6C182.5,818,187.4,812.8,192.9,811.3z"/>
<path fill="#F5FEFF" d="M606.7,494.2c3-21.1-11.1-41.6-29.2-52.7c-18.2-11.1-39.8-14.6-60.8-17.9c9.1-47.7-35.1-97.8-83.5-94.7
	c-48.4,3.1-85.9,58.4-70.8,104.6c-8.9-22.7-37-35.9-60.1-28.1c-23.1,7.8-37.6,35.2-30.9,58.7c-10.7-19.5-37.4-28.4-57.7-19.2
	s-31.2,35.1-23.6,56c-31.4-23.5-59-3.2-69.5,30.3c-2.1,25.1,247.2,12.4,391,11.5c19.5-0.1,39.5-0.3,57.7-7.2
	C587.5,528.6,603.9,513.5,606.7,494.2z"/>
<g>
	<g>
		<path fill="#A95109" d="M759.9,717.2h-105V1400h104.6c0.3-1.3,0.4-3.5,0.4-6.7c-0.1-197.2,0-394.3,0-591.5V717.2z"/>
		<g>
			<path fill="#9D4100" d="M729.7,717.2h-2.8c0,1.8,0,3.6-0.1,5.3c-1,52.8,0.2,106.9,0.6,159.7c0.4,54.1,0.8,108.2,1.2,162.3
				c0.2,21,0.4,41.7,0.2,62.7c-0.1,18.2-0.3,36.3-0.4,54.5c0.8,0.1,1.6,0.1,2.4,0.2c-1.1-0.3,0.1-292.2,0.1-313.6c0-1.5,0-3,0-4.4
				c-0.1,1.7-0.3,3.5-0.4,5.2C730.1,805.1,729.9,761.2,729.7,717.2z"/>
			<path fill="#9D4100" d="M754.8,717.2c0,6-0.1,11.9-0.1,17.9c0,9.5,0.5,19.1,0.3,28.6c-0.4,28-0.4,56-0.4,84
				c2.3-3.6,1.2-11.6,1.3-17.3c0.3-14.2-0.8-28.6,0.5-42.7c0.3-2.8-0.1-7.7,1.1-7.2c1.1,0.4,1.1,4.9,1.2,8.5c0.1,4.2-0.4,9.2,0.9,12
				v-83.9H754.8z"/>
			<path fill="#9D4100" d="M663.4,1091.6c-0.4-42.1-1.3-84.1-0.8-126.3c0.3-31.3-0.4-62.5-0.4-93.8c0-34,1-67.9,1.2-101.9
				c0.1-17.5,0.6-34.9,0.6-52.4H663c0,42.9-0.3,85.9-1.2,128.8c-0.5,21.7,0.1,43.5,0.3,65.3c0.5,61.2-0.3,122.5,0.5,183.8
				c0.4,30.7,0.1,61.5,0.1,92.2c0,29.3,0,58.5,0,87.8c0,41.4,0,82.8,0,124.2h0.9c0.3-20.7,0.1-41.4,0.3-62.1
				c0.3-38.8,0.5-77.7,0-116.4C663.3,1177.7,663.8,1134.6,663.4,1091.6z"/>
			<path fill="#9D4100" d="M666.2,1163.7c0.2-60.7-0.9-121.2-0.9-181.8c0-30.7,0.6-61.3,0-92c-0.1-7.3-0.5-14.6-0.3-22.2
				c0.5-17.8,1.1-35.8,0.8-53.6c-0.5-30.5,0.4-60.8-0.1-91.3c0-1.8,0-3.7-0.1-5.5h-0.5c0,23.6,0.1,47.1-0.1,70.7
				c-0.2,21.8-0.7,43.5-1.2,65.2c-0.3,14.7,0.3,29.2,0.3,43.9c0.1,47-0.1,93.9,0.1,140.9c0.2,42.3,0.9,84.6,0.9,127
				c-0.1,78.1,0,156.3,0,234.5h1c0.7-16.2-0.2-32.3-0.1-48.5C666.2,1288.4,666,1226,666.2,1163.7z"/>
			<path fill="#9D4100" d="M661.1,717.2H660c-0.1,5.6-0.1,11.2-0.1,16.8c0.1,49.6-0.9,99.1-1,148.7c0,13.1,0.4,26.2,0.4,39.3
				c0.3,64.8-0.3,129.7,0.4,194.5c0.4,38.7,0.1,77.6,0.1,116.4c0,55.5,0,110.9,0,166.4h0.9c0.2-50.6,0.1-101.2,0.3-151.9
				c0.1-40.5-0.2-81.2-0.3-121.8c0-12.2-0.1-24.5-0.3-36.7c-0.3-29.3-0.1-58.6-0.1-87.9c0-17.5,0.3-35.1,0.2-52.6
				c-0.2-31-0.8-62.1-0.7-93.1c0.1-17.7,0.5-35.5,0.8-53.2c0.2-14.9-0.3-29.7,0.1-44.5C661.1,744.2,661.2,730.7,661.1,717.2z"/>
			<path fill="#9D4100" d="M667.6,1399.3h0.4c0-5.5-0.1-11.1,0-16.6c0.5-24.5,0.7-49.2,1.1-73.7c0.4-25.5,0.3-51.6-0.4-77.4
				c0-0.2-0.2-0.3-0.7-0.9c0,28.6,0.1,56.8,0,85C667.9,1343.6,667.7,1371.4,667.6,1399.3z"/>
			<path fill="#9D4100" d="M696.1,1167.5c-1.3-11-1.6-22.3-1.2-34.3c0.1-4.5,0.7-5.5,1.6-5.5c1.2,11.2-0.1,23.1,0.7,34.4
				C697.4,1165.6,696.8,1167,696.1,1167.5z"/>
			<path fill="#9D4100" d="M696,717.2c0.1,33-0.1,65.9-0.6,98.8c0.1,68-0.6,136.1-0.1,204c0-0.1,0-0.1-0.1-0.2
				c-0.1,2.5-0.2,5,0.1,7.1c0,2.4,0.1,4.8,0.1,7.2c-0.3,1.5-0.3,3.4,0.1,5.5c0,1.4,0.5,1.4,0.5,0c1.9-63.7,1.3-129.2,1.6-193.2
				c0.2-43,0.4-86.1,0.5-129.2H696z"/>
			<path fill="#9D4100" d="M668.9,742.3c0.1-8.4,0.2-16.8,0.2-25.1h-1c0,38-0.1,75.9-0.9,113.8c-0.6,26.3-0.1,52.4,0,78.7
				c0.2,45.1,0,90.1,0.1,135.2c0,12.2,0.4,24.5,0.7,39.1c0.8-5.7,0.7-9.4,0.6-12.7c-0.7-21.1-0.5-42.3-0.8-63.5
				c-0.2-19.9,0.2-39.9,0.4-59.9c0.3-35.8-0.9-71.6-0.1-107.3C668.6,807.9,668.6,775.1,668.9,742.3z"/>
			<path fill="#9D4100" d="M670.3,881.9c0.6,10.8,0.6,21.6,0.1,32.4C670.7,903.5,669.2,892.7,670.3,881.9z"/>
			<path fill="#9D4100" d="M670.4,919.4c0.1,0.7,0.2,1.4,0.3,2.1C670.6,920.8,670.5,920.1,670.4,919.4z"/>
			<path fill="#9D4100" d="M708.7,1280.7c0.3-41.3,0.5-82.8-0.5-123.8c0-6.1,0.1-12.2,0-18.3c0.1-0.8,0.1-1.5,0-1.8
				c0-4.6-0.1-9.2-0.2-13.8c0-0.4,0-0.8-0.1-1.2c0.1-2.9-0.2-2.7-0.9-3.9c-0.1-0.1-0.2-0.2-0.2-0.3c0-0.5-0.1-1-0.1-1.5
				c-0.1-4.5-0.1-9-0.2-13.6c-1.6-127.9-0.7-257-0.1-385.3h-2.7c0,17.6,0.1,35.1,0.1,52.7c0,0.7,0,1.4,0,2.1
				c0,28.3-0.7,56.4-0.7,84.9c-0.1,26.3-0.1,52.5-0.1,78.8c0.1,41.1,0.2,82.2,0.4,123.4c-0.2,0.9-0.4,2.2-0.4,3.9
				c0.1,10.3,0.2,20.5,0.3,30.8c-0.3,0.9-0.5,2.3-0.4,4.1c0.2,7.8,0.4,15.6,0.7,23.4c0,3.3,0.1,6.6,0.1,10c0,1.2,0.1,2.1,0.2,2.9
				c-0.5,85.8-0.6,171.6-0.2,257.3c0,2.6,0.5,4,0.9,4.2c0,1.2,0,2.4,0,3.7h2.5c0.3-2,0.5-4.1,0.6-6.3c0.2-0.5,0.3-1.3,0.3-2.5
				c0.1-15.8,0.1-31.7,0.1-47.5c0.4-0.7,0.7-2.2,0.7-4.6c-0.2-18.3-0.4-36.6-0.6-54.9C708.6,1282.7,708.7,1281.8,708.7,1280.7z"/>
			<path fill="#9D4100" d="M708.4,1258.8L708.4,1258.8L708.4,1258.8z"/>
			<path fill="#9D4100" d="M737.7,983.2c-0.3-4.3,0-7,0.3-9.7C738.1,976.5,738.3,979.5,737.7,983.2z"/>
			<path fill="#9D4100" d="M737.4,717.2c-0.2,25.9-0.4,51.7-0.1,77.6c0.4,37.1,0.8,74.2,1,111.3c0.4,74.2,0.4,148.4,0,222.6
				c-0.2,39.6-0.7,79.1-1.1,118.7c-0.3,22-0.6,44-0.8,65.9c0.4-4.3,0.8-8.6,1.2-12.9c-1.2,33-1.1,66.7,0.6,99.4
				c0-17.8,0.4-35.7,0.5-53.6c0.2-18.6,0.3-37.2,0.5-55.8c0.3-37.2,0.7-74.4,1-111.6c1-108.3,0.9-215.9,0.5-324.2
				c0.6-28.1,1.3-56.3,1.9-84.4c0.4-17.9,0.4-35.4,0.4-53H737.4z M739.1,821.3c-0.1-4.6-0.1-9.2,0.1-13.8
				C739.1,812.1,739.1,816.7,739.1,821.3z"/>
			<path fill="#9D4100" d="M735,1192.5c0.1-0.7,0.2-1.4,0.3-2C735.2,1191.2,735.1,1191.9,735,1192.5z"/>
			<path fill="#9D4100" d="M686,724.9c0-0.2,0-0.5,0-0.6c0-2.3,0-4.7,0-7h-2.9c0,5.1,0,10.3,0,15.4c0,52.1,0.5,104.2,0.8,156.2
				c0,0.1,0,0.1,0,0.2c0.3,22.3-0.4,45.7-0.5,68.1c0,8.7-0.1,17.3-0.1,26c-0.5,137.5,0.2,274.8,2.5,412.1c0-74.5,0-148.9,0.1-223.4
				c0-37.2,0-74.5,0.1-111.7c0-43.4,0-85.7,0.7-129.1c1-64.2-0.4-127.9-0.4-192.1C686.1,734.2,686.1,729.6,686,724.9z"/>
			<path fill="#9D4100" d="M713.8,1050.5c0,0.7,0,1.4,0,2.1C713.8,1051.9,713.8,1051.2,713.8,1050.5z"/>
			<path fill="#9D4100" d="M714.7,1339.4c0,0.7,0,1.4,0,2.1C714.7,1340.8,714.7,1340.1,714.7,1339.4z"/>
			<path fill="#9D4100" d="M754.4,1022.1c-0.1-7.9-0.3-15.8,0.4-23.6C755.2,1006.6,755.7,1014.6,754.4,1022.1z"/>
			<path fill="#9D4100" d="M754.8,982.4c0-5.4,0-10.8,0-16.2C755.3,971.6,755.3,977,754.8,982.4z"/>
			<path fill="#9D4100" d="M754.8,989.9c0-1.4,0-2.7,0-4.1C755.4,987.1,755.4,988.5,754.8,989.9z"/>
			<path fill="#9D4100" d="M754.8,961c0-0.7,0-1.3,0-2C754.8,959.6,754.8,960.3,754.8,961z"/>
			<path fill="#9D4100" d="M754.8,955.6c0.1-0.7,0.2-1.4,0.3-2C755,954.2,754.9,954.9,754.8,955.6z"/>
			<path fill="#9D4100" d="M719.3,1025.4c0.2,1.2,0.3,2.7,0.6,3.6c1.5,4.5,1.3,8.3-0.5,12.6C718.7,1036.3,718.8,1030.9,719.3,1025.4
				z"/>
			<path fill="#9D4100" d="M715.2,717.2h-3.8c0,12.7,0.1,25.4,0.2,38.1c0.1,15.4,0.3,32.1,0.6,48c0.2,14.5,1.5,32.1,0.5,46.2
				c-0.1,1.5-0.2,3.1-0.2,4.8c-0.1,72.7,0.8,145.4,1,218c0.1,74.6,0.4,149.3,0.7,223.9c0,8.6,0.4,103.1,0.5,103.1c0.9,0,1.8,0,2.6,0
				c-0.4-149.5-0.8-299.1-1.3-448.6C715.8,872.8,715.5,795,715.2,717.2z"/>
			<path fill="#9D4100" d="M725.3,846.5c-0.1-12.5-0.3-24.9-0.4-37.4c-0.3-26.4-0.6-52.7-0.5-79.1c0-4.3,0-8.5,0-12.8H720
				c0,3.7,0.1,7.4,0.2,11.2c0.1,1.7-0.1,3.6-0.1,5.3c-0.6,16,0.2,30.7,0.3,46.6c0.1,18.5,0.1,36.9,0.2,55.4
				c0.1,36.9,0.2,73.9,0.3,110.8c0.1-4.1,0.3-8.2,0.4-12.3c0.4,82.3,0.9,164.5,1.3,246.8c2.5-20,1.6-40.6,1.8-62
				c0.2-22.6,0.2-45.2,0.2-67.8c-0.2-64.9-0.5-129.8-0.7-194.8c0.5,8.4,1,16.9,1.5,25.3C724.8,871.3,725.4,857.4,725.3,846.5z"/>
			<path fill="#9D4100" d="M722.3,1127.8c0.2,1.3,0.1,2.5,0,3.6C722.3,1130.2,722.3,1129,722.3,1127.8z"/>
			<path fill="#9D4100" d="M671.7,849.7c-0.6-3.5-0.6-6.7,0.4-9.4C672.1,843.5,672.2,846.8,671.7,849.7z"/>
			<path fill="#9D4100" d="M672.5,805.1c-1-3.3-1-6.5,0-9.7C672.5,798.6,672.5,801.9,672.5,805.1z"/>
			<path fill="#9D4100" d="M672,869.6c-0.6-1.3-0.6-2.7-0.1-4.3C672,866.8,672,868.2,672,869.6z"/>
			<path fill="#9D4100" d="M671.7,969.9c0-0.7,0-1.3,0.1-2C671.7,968.6,671.7,969.3,671.7,969.9z"/>
			<path fill="#9D4100" d="M672.1,959.2c0-0.7,0-1.4,0-2C672.1,957.8,672.1,958.5,672.1,959.2z"/>
			<path fill="#9D4100" d="M672.1,717.2c0,1.8,0,3.5,0,5.3c0,7.8-0.1,15.6-0.1,23.4c-0.1,1.2-0.1,2.4,0,3.7c0,2.8,0,5.7,0,8.5
				c0,11.8-0.3,23.9,0,35.6c0,1.6,0.7,2.3,0.8,0.4c0.9-22.1,0.5-45.7,0.7-68.1c0-2.9,0-5.9,0.1-8.8H672.1z"/>
			<path fill="#9D4100" d="M725.4,912.5c0.1-1.8,0.2-3.7,0.3-5.5C725.6,908.8,725.5,910.7,725.4,912.5z"/>
			<path fill="#9D4100" d="M735.5,1081.1c0.1-42.9-0.4-85.8-0.4-128.7c-0.2-23.5,0.4-47.1,0.4-70.7c0-29-0.7-57.8-0.9-86.7
				c-0.1-26-0.3-51.9-0.5-77.8h-2.6c0.1,19.7,0.2,39.4,0.3,59.1c0.9,140.9,0.6,282,0.9,423c0.9-20.4,2.7-42.9,2.7-63.5
				C735.7,1117.8,735.4,1099.3,735.5,1081.1z"/>
			<path fill="#9D4100" d="M733,1183.2c-0.1,0.7-0.2,1.4-0.3,2C732.8,1184.6,732.9,1183.9,733,1183.2z"/>
			<path fill="#9D4100" d="M750.7,717.2c0.3,0.9,0.5,1.8,0.7,2.8c0.2,1.9,0.3,3.9,0.4,6c0.1,1.9,0.4,3,0.8,3.4
				c0.1,2.3,0.2,4.8,0.2,7.5c0.2-1.3,0.4-2.5,0.6-3.8c0-1.2,0-2.4,0-3.6c0.6-0.4,1.1-2.1,1.1-4.9c-0.1-2.6-0.2-5-0.3-7.4H750.7z"/>
			<path fill="#9D4100" d="M747.9,774.5c0-19.1-0.1-38.3,0.5-57.3h-2.7c-0.3,11.9-0.4,23.8-0.4,35.8c-0.2,1.3-0.2,3-0.3,5.3
				c0,2.9,0.1,5.7,0.3,8.3c0,0.3,0,0.6,0,0.9c0,24.8,0,49.7,0,74.5c0,50.7-0.2,102,0.7,152.6c0,0.4,0,0.7,0.1,0.9c0,1.9,0,3.7,0,5.6
				c0.5,41.2-0.3,83-0.6,124.4c-0.1,9.3,0,20.2,2,25.6c1.2-100.7,0.3-201.3,0.3-301.9C747.9,824.2,747.9,799.4,747.9,774.5z"/>
		</g>
		<g>
			<path fill="#8C2900" d="M738.9,983.5c-0.1-65.9-1.1-131-1.3-196.9c-0.1-23-0.1-46.2-0.1-69.4h-3.6c0.1,8,0.3,16.1,0.4,24.1
				c0.7,32.9,0.6,66.6,0.9,99.7c0.8,93.6,0,187.2,0.3,280.8c0,7.4,0.3,14.8-0.1,22.2c-0.9,17.4,0,38.4,0,56.2
				c-0.1,22.4-0.2,44.7-0.2,67.1c-0.1,44-0.3,88-0.4,132c0.9,0.1,1.8,0.2,2.7,0.3c-2.8-0.3,0-166.6,0.2-181.8
				c0.3-22.5,0.7-44.8,0.8-67.3c0.3-54.2,0.5-108.5,0.5-162.8C738.9,986.3,738.9,984.9,738.9,983.5z M737.7,983.2
				c-0.3-4.3,0-7,0.3-9.7C738.1,976.5,738.3,979.5,737.7,983.2z"/>
			<path fill="#8C2900" d="M695.5,993.9c0-33.6,0.1-67.2,0.1-100.8c0.1-58.6,0.2-117.3,0-175.9h-3.4c-0.4,101.9-0.1,204.1,0.4,305.9
				c0.1,31.8-0.1,63.8,0,95.7c0.1,59,0.9,118.2,0.3,177.1c-0.3,34.4-0.1,68.9-0.1,103.4c0,0,3.2,0,3.2,0c0.5,0,0.7-21.6,0.7-49.9
				c0.1-52.1-0.5-104.1-0.8-156.2C695.6,1126.7,695.5,1060.3,695.5,993.9z M693.6,883.7v-51.8C694.4,849.3,694.3,866.5,693.6,883.7z
				"/>
			<path fill="#8C2900" d="M745.9,717.2h-2.8c0,22.6,0.1,38.8,0.1,45.1c0,7.1,0,14.3,0.1,21.4c0.3,91.6,0.5,183.2,0.4,274.8
				c-0.1,113-0.6,227.2-0.4,340.8c0,0,1.8,0,1.8,0c-1.1-0.7,0.4-149.9,0.4-160.5c0.3-72.4,1-144.7,0.8-217.1
				C746,920.2,745.8,818.7,745.9,717.2z"/>
			<path fill="#8C2900" d="M713.1,952.2c-0.1-32.8-0.3-65.6-0.4-98.4c-0.1-16.4-0.1-32.8-0.2-49.2c-0.1-13.8-0.9-26.1-0.8-39.9
				c0.1-15.8,0-31.7,0-47.5h-2.9c0.2,44.6,0.6,89.2,0.5,133.8c-0.1,32.2,0,64.5,0.8,96.6c1.8,73.4,1.2,147.3,0.9,221
				c-0.3,73,0,146.1,0.4,219.1c0,0.1,0,0.3,0,0.4c0,3.7,0,7.5,0.1,11.2c1.2,0,2.3,0,3.5,0c-0.1-27-0.2-54-0.3-80.9
				C714.2,1196.3,713.7,1074.2,713.1,952.2z"/>
			<path fill="#8C2900" d="M683.2,1106.5c0.3-65.5,0.6-132.5,0.8-198.6c0.1-33.5,0.3-67,0.4-100.4c0.1-30.1,0.1-60.2,0.1-90.3h-3
				c-0.1,22.7-0.1,45.4-0.5,68c-0.7,50.4,0.3,100.9,0.2,151.3c-0.1,25.6-0.7,51.3-0.6,76.9c0.2,37.3,0.1,74.5,0.5,111.8
				c0.2,23.7,0.3,47.6,0.4,71.3c0.2,30.1-0.1,60.3,0.4,90.4c0.4,21.4,0.1,42.9-0.1,64.4c-0.1,16-0.1,32-0.2,48c1.3,0,2.5,0,3.8,0
				c-0.2-24.8-0.4-49.6-0.5-74.4C684.5,1252.4,682.9,1178.7,683.2,1106.5z"/>
			<path fill="#8C2900" d="M654.8,717.2V749c0.1-8.1,0.1-16.2,0.2-24.2c0-2.5,0-5.1,0-7.6H654.8z"/>
			<path fill="#8C2900" d="M721.4,952.2c-0.1-29.1-0.3-58.1-0.4-87.2c-0.3-49.4-0.4-98.6-0.5-147.9h-2.8c0.1,34.1,0.2,58.9,0.2,66.8
				c0.3,59.7,0.7,119.3,1.2,179c0.2,26.9,0.8,53.3,0.8,80.5c-0.1,29.3-0.2,58.6-0.2,88c0.2,74.4,0.4,148.8,0.6,223.2l0.1,44.6
				c1,0,2.1,0,3.1,0c-0.1-23.9-0.2-47.8-0.4-71.7C722.7,1202.5,722,1077.4,721.4,952.2z"/>
			<path fill="#8C2900" d="M704.4,1107.1c-0.6-74.5-1-149.1-1.1-223.7c-0.1-55.2,0.5-110.9,0.4-166.2h-2.4
				c-0.4,86.1-0.7,172.2,0.1,258c1.3,140.8,1.5,283,0.7,424.1c0.8,0,1.7,0,2.5,0c0-32.1,0.1-64.1,0.1-96.2c0-32.6,0.1-65.2,0-97.9
				C704.8,1172.5,704.7,1139.8,704.4,1107.1z"/>
			<path fill="#8C2900" d="M678.1,1205.9c-1.1-64.3,0-128.9,0-193.3c0-74.5,0-149,0-223.5c0-24,0.1-48,0.2-71.9h-2
				c-0.1,20.9-0.1,41.8-0.3,62.6c-0.1,16.3-0.3,32.6-0.5,48.9c-0.3,25.3-0.1,50.7,0.3,76.1c0.6,41-0.7,81.8-0.4,122.8
				c0.4,57.6,1.1,115.2,1.1,172.7c0,35.4,0.1,70.9,0,106.3c0,30.8-0.3,61.7-0.2,92.6h2.3c1.1-46.4,0.9-93,0.3-139.5
				C678.7,1241.8,678.4,1223.8,678.1,1205.9z"/>
			<path fill="#8C2900" d="M728.5,1076.4l-0.1-15.7c-0.2-32.2-0.4-64.3-0.6-96.5c-0.4-74.8-0.9-149.5-1.3-224.3
				c0-6.1,0.2-11.4,0.3-17.4c0-1.8,0.1-3.6,0.1-5.3h-2.4c0,4.3,0,8.5,0,12.8c-0.5,92.4,1.9,184.7,1.7,277.1
				c-0.3,130.6,0.1,261.4,0.2,392.2c0.7,0,1.4,0,2.2,0c-0.8-63.5-0.1-127.1-0.6-190.6c-0.1-10.4,0.8-20.6,0.7-31.2
				C728.1,1143.6,728.7,1110.1,728.5,1076.4z"/>
			<path fill="#8C2900" d="M754.9,777.5c0-20.1,0.1-40.2,0.1-60.3h-2.2c0.1,41.4,0.1,82.7-0.3,124.2c-0.2,18.4-0.2,36.8,0.2,55.4
				c2,102.3-1.5,204.5-0.2,306.7c0.2,16.8-0.3,33.4-0.4,50.2c-0.2,48.6,0.5,97.2-0.5,145.7h2.3c0-23.1-0.1-46.2,0.3-69.4
				c0.6-36.9-0.2-73.9,0-110.9C754.9,1071.8,754.8,924.8,754.9,777.5z"/>
			<path fill="#8C2900" d="M732.3,952c0-42.5-0.1-85-0.1-127.5c0-35.9-0.4-71.6-0.7-107.4h-1.9c0.6,122,1.1,244.6,1.1,366.7
				c0,67.9-0.1,135.8-0.1,203.6c0,37.2,0,74.5-0.1,111.7c0.7,0,1.4,0,2.1,0c-0.1-83.9-0.1-167.8-0.2-251.7
				C732.4,1082.4,732.4,1017.2,732.3,952z"/>
			<path fill="#8C2900" d="M672.2,1120.9c-0.1-23,0.2-46,0-68.9c-0.2-27.4-0.6-54.7-0.5-82.1c0-0.7,0-1.3,0.1-2
				c0.1-2.9,0.2-5.8,0.4-8.8c0-0.7,0-1.4,0-2c0-29.2,0-58.3,0-87.5c-0.6-1.3-0.6-2.7-0.1-4.3c-0.1-5.2-0.2-10.5-0.3-15.7
				c-0.6-3.5-0.6-6.7,0.4-9.4c0.1-11.7,0.3-23.5,0.4-35.2c-1-3.3-1-6.5,0-9.7c0-5.3,0-10.5,0.1-15.7c-0.6-5.4-0.6-10.9,0-16.3
				c0-2.9,0-5.9,0-8.8c-0.3-3.7-1.2-7.4,0-11.1c0.1-4.1,0.2-8.2,0.3-12.4c0-4.6,0-9.3,0-13.9h-1.5c0,25.9-0.1,51.8-0.5,77.8
				c-0.4,29-0.5,57.9-0.5,86.9c0.6,10.8,0.6,21.6,0.1,32.4c0,1.7,0,3.4,0,5.1c0.1,0.7,0.2,1.4,0.3,2.1c-0.3,18.2-0.4,36.3-0.6,54.5
				c-0.3,19.4,0,38.8,0.2,58.1c0.1,21.2,1,42.3,1,63.5c0,100.6,0.6,201.2-0.4,301.7h1.8c-0.2-22.6,0.6-45,0.5-67.6
				c-0.1-11-0.3-22.2,0-33c0.7-22,0-44,0.1-66C673.3,1195.5,672.4,1158.2,672.2,1120.9z"/>
			<path fill="#8C2900" d="M656.6,717.2c0,5.8,0,11.5,0.1,17.3c0.3,46.3-1.1,92.5-0.8,138.6c0.5,76.8-0.1,153.6,0.5,230.3
				c0.3,35.5,0.4,71.1,0.6,106.6c0.2,39.3,0.5,78.8,0.1,118.1c-0.3,23.8-0.1,47.5-0.4,71.2h0.9c-0.2-15.1,0.5-30.1,0.4-45.2
				c0-27.2-0.3-54.5,0.2-81.5c0.6-33.1,0.1-66.2,0-99.2c-0.1-23.8-0.5-47.8-0.3-71.5c0.3-36.7-0.3-73.3,0-110
				c0.3-33,0.4-66.2-0.2-99.3c-0.6-30.6,0.3-61.1,0.5-91.7c0.2-25.7,0.3-51.3,0.5-77c0-2.2,0-4.4,0-6.7H656.6z"/>
			<polygon fill="#8C2900" points="726.7,817.2 726.8,817 726.7,817.4 			"/>
			<path fill="#8C2900" d="M704.9,1340.6c0.1,0.1,0.2,0.2,0.2,0.3c0,0.5,0,0.9-0.1,1.4c-0.1-0.1-0.1-0.2-0.1-0.3
				C704.8,1341.5,704.9,1341,704.9,1340.6z"/>
		</g>
	</g>
	<g>
		<path fill="#E48E3C" d="M742.2,717.2H639V1400h102.9c0.3-1.3,0.4-3.5,0.4-6.7c-0.1-197.2,0-394.3,0-591.5V717.2z"/>
		<g>
			<path fill="#D87E2C" d="M712,717.2h-2.8c0,1.8,0,3.6-0.1,5.3c-1,52.8,0.2,106.9,0.6,159.7c0.4,54.1,0.8,108.2,1.2,162.3
				c0.2,21,0.4,41.7,0.2,62.7c-0.1,18.2-0.3,36.3-0.4,54.5c0.8,0.1,1.6,0.1,2.4,0.2c-1.1-0.3,0.1-292.2,0.1-313.6c0-1.5,0-3,0-4.4
				c-0.1,1.7-0.3,3.5-0.4,5.2C712.5,805.1,712.2,761.2,712,717.2z"/>
			<path fill="#D87E2C" d="M737.2,717.2c0,6-0.1,11.9-0.1,17.9c0,9.5,0.5,19.1,0.3,28.6c-0.4,28-0.4,56-0.4,84
				c2.3-3.6,1.2-11.6,1.3-17.3c0.3-14.2-0.8-28.6,0.5-42.7c0.3-2.8-0.1-7.7,1.1-7.2c1.1,0.4,1.1,4.9,1.2,8.5c0.1,4.2-0.4,9.2,0.9,12
				v-83.9H737.2z"/>
			<path fill="#D87E2C" d="M645.7,1091.6c-0.4-42.1-1.3-84.1-0.8-126.3c0.3-31.3-0.4-62.5-0.4-93.8c0-34,1-67.9,1.2-101.9
				c0.1-17.5,0.6-34.9,0.6-52.4h-1.1c0,42.9-0.3,85.9-1.2,128.8c-0.5,21.7,0.1,43.5,0.3,65.3c0.5,61.2-0.3,122.5,0.5,183.8
				c0.4,30.7,0.1,61.5,0.1,92.2c0,29.3,0,58.5,0,87.8c0,41.4,0,82.8,0,124.2h0.9c0.3-20.7,0.1-41.4,0.3-62.1
				c0.3-38.8,0.5-77.7,0-116.4C645.6,1177.7,646.1,1134.6,645.7,1091.6z"/>
			<path fill="#D87E2C" d="M648.6,1163.7c0.2-60.7-0.9-121.2-0.9-181.8c0-30.7,0.6-61.3,0-92c-0.1-7.3-0.5-14.6-0.3-22.2
				c0.5-17.8,1.1-35.8,0.8-53.6c-0.5-30.5,0.4-60.8-0.1-91.3c0-1.8,0-3.7-0.1-5.5h-0.5c0,23.6,0.1,47.1-0.1,70.7
				c-0.2,21.8-0.7,43.5-1.2,65.2c-0.3,14.7,0.3,29.2,0.3,43.9c0.1,47-0.1,93.9,0.1,140.9c0.2,42.3,0.9,84.6,0.9,127
				c-0.1,78.1,0,156.3,0,234.5h1c0.7-16.2-0.2-32.3-0.1-48.5C648.6,1288.4,648.4,1226,648.6,1163.7z"/>
			<path fill="#D87E2C" d="M643.5,717.2h-1.2c-0.1,5.6-0.1,11.2-0.1,16.8c0.1,49.6-0.9,99.1-1,148.7c0,13.1,0.4,26.2,0.4,39.3
				c0.3,64.8-0.3,129.7,0.4,194.5c0.4,38.7,0.1,77.6,0.1,116.4c0,55.5,0,110.9,0,166.4h0.9c0.2-50.6,0.1-101.2,0.3-151.9
				c0.1-40.5-0.2-81.2-0.3-121.8c0-12.2-0.1-24.5-0.3-36.7c-0.3-29.3-0.1-58.6-0.1-87.9c0-17.5,0.3-35.1,0.2-52.6
				c-0.2-31-0.8-62.1-0.7-93.1c0.1-17.7,0.5-35.5,0.8-53.2c0.2-14.9-0.3-29.7,0.1-44.5C643.5,744.2,643.5,730.7,643.5,717.2z"/>
			<path fill="#D87E2C" d="M649.9,1399.3h0.4c0-5.5-0.1-11.1,0-16.6c0.5-24.5,0.7-49.2,1.1-73.7c0.4-25.5,0.3-51.6-0.4-77.4
				c0-0.2-0.2-0.3-0.7-0.9c0,28.6,0.1,56.8,0,85C650.3,1343.6,650.1,1371.4,649.9,1399.3z"/>
			<path fill="#D87E2C" d="M678.4,1167.5c-1.3-11-1.6-22.3-1.2-34.3c0.1-4.5,0.7-5.5,1.6-5.5c1.2,11.2-0.1,23.1,0.7,34.4
				C679.7,1165.6,679.2,1167,678.4,1167.5z"/>
			<path fill="#D87E2C" d="M678.3,717.2c0.1,33-0.1,65.9-0.6,98.8c0.1,68-0.6,136.1-0.1,204c0-0.1,0-0.1-0.1-0.2
				c-0.1,2.5-0.2,5,0.1,7.1c0,2.4,0.1,4.8,0.1,7.2c-0.3,1.5-0.3,3.4,0.1,5.5c0,1.4,0.5,1.4,0.5,0c1.9-63.7,1.3-129.2,1.6-193.2
				c0.2-43,0.4-86.1,0.5-129.2H678.3z"/>
			<path fill="#D87E2C" d="M651.2,742.3c0.1-8.4,0.2-16.8,0.2-25.1h-1c0,38-0.1,75.9-0.9,113.8c-0.6,26.3-0.1,52.4,0,78.7
				c0.2,45.1,0,90.1,0.1,135.2c0,12.2,0.4,24.5,0.7,39.1c0.8-5.7,0.7-9.4,0.6-12.7c-0.7-21.1-0.5-42.3-0.8-63.5
				c-0.2-19.9,0.2-39.9,0.4-59.9c0.3-35.8-0.9-71.6-0.1-107.3C651,807.9,650.9,775.1,651.2,742.3z"/>
			<path fill="#D87E2C" d="M652.7,881.9c0.6,10.8,0.6,21.6,0.1,32.4C653.1,903.5,651.5,892.7,652.7,881.9z"/>
			<path fill="#D87E2C" d="M652.7,919.4c0.1,0.7,0.2,1.4,0.3,2.1C653,920.8,652.9,920.1,652.7,919.4z"/>
			<path fill="#D87E2C" d="M691,1280.7c0.3-41.3,0.5-82.8-0.5-123.8c0-6.1,0.1-12.2,0-18.3c0.1-0.8,0.1-1.5,0-1.8
				c0-4.6-0.1-9.2-0.2-13.8c0-0.4,0-0.8-0.1-1.2c0.1-2.9-0.2-2.7-0.9-3.9c-0.1-0.1-0.2-0.2-0.2-0.3c0-0.5-0.1-1-0.1-1.5
				c-0.1-4.5-0.1-9-0.2-13.6c-1.6-127.9-0.7-257-0.1-385.3H686c0,17.6,0.1,35.1,0.1,52.7c0,0.7,0,1.4,0,2.1
				c0,28.3-0.7,56.4-0.7,84.9c-0.1,26.3-0.1,52.5-0.1,78.8c0.1,41.1,0.2,82.2,0.4,123.4c-0.2,0.9-0.4,2.2-0.4,3.9
				c0.1,10.3,0.2,20.5,0.3,30.8c-0.3,0.9-0.5,2.3-0.4,4.1c0.2,7.8,0.4,15.6,0.7,23.4c0,3.3,0.1,6.6,0.1,10c0,1.2,0.1,2.1,0.2,2.9
				c-0.5,85.8-0.6,171.6-0.2,257.3c0,2.6,0.5,4,0.9,4.2c0,1.2,0,2.4,0,3.7h2.5c0.3-2,0.5-4.1,0.6-6.3c0.2-0.5,0.3-1.3,0.3-2.5
				c0.1-15.8,0.1-31.7,0.1-47.5c0.4-0.7,0.7-2.2,0.7-4.6c-0.2-18.3-0.4-36.6-0.6-54.9C690.9,1282.7,691,1281.8,691,1280.7z"/>
			<path fill="#D87E2C" d="M690.7,1258.8L690.7,1258.8L690.7,1258.8z"/>
			<path fill="#D87E2C" d="M720,983.2c-0.3-4.3,0-7,0.3-9.7C720.5,976.5,720.7,979.5,720,983.2z"/>
			<path fill="#D87E2C" d="M719.7,717.2c-0.2,25.9-0.4,51.7-0.1,77.6c0.4,37.1,0.8,74.2,1,111.3c0.4,74.2,0.4,148.4,0,222.6
				c-0.2,39.6-0.7,79.1-1.1,118.7c-0.3,22-0.6,44-0.8,65.9c0.4-4.3,0.8-8.6,1.2-12.9c-1.2,33-1.1,66.7,0.6,99.4
				c0-17.8,0.4-35.7,0.5-53.6c0.2-18.6,0.3-37.2,0.5-55.8c0.3-37.2,0.7-74.4,1-111.6c1-108.3,0.9-215.9,0.5-324.2
				c0.6-28.1,1.3-56.3,1.9-84.4c0.4-17.9,0.4-35.4,0.4-53H719.7z M721.4,821.3c-0.1-4.6-0.1-9.2,0.1-13.8
				C721.5,812.1,721.5,816.7,721.4,821.3z"/>
			<path fill="#D87E2C" d="M717.3,1192.5c0.1-0.7,0.2-1.4,0.3-2C717.6,1191.2,717.5,1191.9,717.3,1192.5z"/>
			<path fill="#D87E2C" d="M668.4,724.9c0-0.2,0-0.5,0-0.6c0-2.3,0-4.7,0-7h-2.9c0,5.1,0,10.3,0,15.4c0,52.1,0.5,104.2,0.8,156.2
				c0,0.1,0,0.1,0,0.2c0.3,22.3-0.4,45.7-0.5,68.1c0,8.7-0.1,17.3-0.1,26c-0.5,137.5,0.2,274.8,2.5,412.1c0-74.5,0-148.9,0.1-223.4
				c0-37.2,0-74.5,0.1-111.7c0-43.4,0-85.7,0.7-129.1c1-64.2-0.4-127.9-0.4-192.1C668.5,734.2,668.4,729.6,668.4,724.9z"/>
			<path fill="#D87E2C" d="M696.1,1050.5c0,0.7,0,1.4,0,2.1C696.1,1051.9,696.1,1051.2,696.1,1050.5z"/>
			<path fill="#D87E2C" d="M697,1339.4c0,0.7,0,1.4,0,2.1C697.1,1340.8,697,1340.1,697,1339.4z"/>
			<path fill="#D87E2C" d="M736.7,1022.1c-0.1-7.9-0.3-15.8,0.4-23.6C737.6,1006.6,738.1,1014.6,736.7,1022.1z"/>
			<path fill="#D87E2C" d="M737.1,982.4c0-5.4,0-10.8,0-16.2C737.7,971.6,737.6,977,737.1,982.4z"/>
			<path fill="#D87E2C" d="M737.2,989.9c0-1.4,0-2.7,0-4.1C737.7,987.1,737.8,988.5,737.2,989.9z"/>
			<path fill="#D87E2C" d="M737.1,961c0-0.7,0-1.3,0-2C737.1,959.6,737.1,960.3,737.1,961z"/>
			<path fill="#D87E2C" d="M737.1,955.6c0.1-0.7,0.2-1.4,0.3-2C737.3,954.2,737.2,954.9,737.1,955.6z"/>
			<path fill="#D87E2C" d="M701.6,1025.4c0.2,1.2,0.3,2.7,0.6,3.6c1.5,4.5,1.3,8.3-0.5,12.6C701,1036.3,701.1,1030.9,701.6,1025.4z"
				/>
			<path fill="#D87E2C" d="M697.6,717.2h-3.8c0,12.7,0.1,25.4,0.2,38.1c0.1,15.4,0.3,32.1,0.6,48c0.2,14.5,1.5,32.1,0.5,46.2
				c-0.1,1.5-0.2,3.1-0.2,4.8c-0.1,72.7,0.8,145.4,1,218c0.1,74.6,0.4,149.3,0.7,223.9c0,8.6,0.4,103.1,0.5,103.1c0.9,0,1.8,0,2.6,0
				c-0.4-149.5-0.8-299.1-1.3-448.6C698.2,872.8,697.9,795,697.6,717.2z"/>
			<path fill="#D87E2C" d="M707.7,846.5c-0.1-12.5-0.3-24.9-0.4-37.4c-0.3-26.4-0.6-52.7-0.5-79.1c0-4.3,0-8.5,0-12.8h-4.4
				c0,3.7,0.1,7.4,0.2,11.2c0.1,1.7-0.1,3.6-0.1,5.3c-0.6,16,0.2,30.7,0.3,46.6c0.1,18.5,0.1,36.9,0.2,55.4
				c0.1,36.9,0.2,73.9,0.3,110.8c0.1-4.1,0.3-8.2,0.4-12.3c0.4,82.3,0.9,164.5,1.3,246.8c2.5-20,1.6-40.6,1.8-62
				c0.2-22.6,0.2-45.2,0.2-67.8c-0.2-64.9-0.5-129.8-0.7-194.8c0.5,8.4,1,16.9,1.5,25.3C707.2,871.3,707.8,857.4,707.7,846.5z"/>
			<path fill="#D87E2C" d="M704.6,1127.8c0.2,1.3,0.1,2.5,0,3.6C704.6,1130.2,704.6,1129,704.6,1127.8z"/>
			<path fill="#D87E2C" d="M654,849.7c-0.6-3.5-0.6-6.7,0.4-9.4C654.5,843.5,654.5,846.8,654,849.7z"/>
			<path fill="#D87E2C" d="M654.8,805.1c-1-3.3-1-6.5,0-9.7C654.8,798.6,654.8,801.9,654.8,805.1z"/>
			<path fill="#D87E2C" d="M654.4,869.6c-0.6-1.3-0.6-2.7-0.1-4.3C654.3,866.8,654.4,868.2,654.4,869.6z"/>
			<path fill="#D87E2C" d="M654,969.9c0-0.7,0-1.3,0.1-2C654.1,968.6,654.1,969.3,654,969.9z"/>
			<path fill="#D87E2C" d="M654.5,959.2c0-0.7,0-1.4,0-2C654.4,957.8,654.4,958.5,654.5,959.2z"/>
			<path fill="#D87E2C" d="M654.5,717.2c0,1.8,0,3.5,0,5.3c0,7.8-0.1,15.6-0.1,23.4c-0.1,1.2-0.1,2.4,0,3.7c0,2.8,0,5.7,0,8.5
				c0,11.8-0.3,23.9,0,35.6c0,1.6,0.7,2.3,0.8,0.4c0.9-22.1,0.5-45.7,0.7-68.1c0-2.9,0-5.9,0.1-8.8H654.5z"/>
			<path fill="#D87E2C" d="M707.7,912.5c0.1-1.8,0.2-3.7,0.3-5.5C707.9,908.8,707.8,910.7,707.7,912.5z"/>
			<path fill="#D87E2C" d="M717.8,1081.1c0.1-42.9-0.4-85.8-0.4-128.7c-0.2-23.5,0.4-47.1,0.4-70.7c0-29-0.7-57.8-0.9-86.7
				c-0.1-26-0.3-51.9-0.5-77.8h-2.6c0.1,19.7,0.2,39.4,0.3,59.1c0.9,140.9,0.6,282,0.9,423c0.9-20.4,2.7-42.9,2.7-63.5
				C718,1117.8,717.8,1099.3,717.8,1081.1z"/>
			<path fill="#D87E2C" d="M715.4,1183.2c-0.1,0.7-0.2,1.4-0.3,2C715.1,1184.6,715.2,1183.9,715.4,1183.2z"/>
			<path fill="#D87E2C" d="M733,717.2c0.3,0.9,0.5,1.8,0.7,2.8c0.2,1.9,0.3,3.9,0.4,6c0.1,1.9,0.4,3,0.8,3.4
				c0.1,2.3,0.2,4.8,0.2,7.5c0.2-1.3,0.4-2.5,0.6-3.8c0-1.2,0-2.4,0-3.6c0.6-0.4,1.1-2.1,1.1-4.9c-0.1-2.6-0.2-5-0.3-7.4H733z"/>
			<path fill="#D87E2C" d="M730.2,774.5c0-19.1-0.1-38.3,0.5-57.3H728c-0.3,11.9-0.4,23.8-0.4,35.8c-0.2,1.3-0.2,3-0.3,5.3
				c0,2.9,0.1,5.7,0.3,8.3c0,0.3,0,0.6,0,0.9c0,24.8,0,49.7,0,74.5c0,50.7-0.2,102,0.7,152.6c0,0.4,0,0.7,0.1,0.9c0,1.9,0,3.7,0,5.6
				c0.5,41.2-0.3,83-0.6,124.4c-0.1,9.3,0,20.2,2,25.6c1.2-100.7,0.3-201.3,0.3-301.9C730.2,824.2,730.2,799.4,730.2,774.5z"/>
		</g>
		<g>
			<path fill="#C76628" d="M721.3,983.5c-0.1-65.9-1.1-131-1.3-196.9c-0.1-23-0.1-46.2-0.1-69.4h-3.6c0.1,8,0.3,16.1,0.4,24.1
				c0.7,32.9,0.6,66.6,0.9,99.7c0.8,93.6,0,187.2,0.3,280.8c0,7.4,0.3,14.8-0.1,22.2c-0.9,17.4,0,38.4,0,56.2
				c-0.1,22.4-0.2,44.7-0.2,67.1c-0.1,44-0.3,88-0.4,132c0.9,0.1,1.8,0.2,2.7,0.3c-2.8-0.3,0-166.6,0.2-181.8
				c0.3-22.5,0.7-44.8,0.8-67.3c0.3-54.2,0.5-108.5,0.5-162.8C721.3,986.3,721.3,984.9,721.3,983.5z M720,983.2
				c-0.3-4.3,0-7,0.3-9.7C720.5,976.5,720.7,979.5,720,983.2z"/>
			<path fill="#C76628" d="M677.9,993.9c0-33.6,0.1-67.2,0.1-100.8c0.1-58.6,0.2-117.3,0-175.9h-3.4c-0.4,101.9-0.1,204.1,0.4,305.9
				c0.1,31.8-0.1,63.8,0,95.7c0.1,59,0.9,118.2,0.3,177.1c-0.3,34.4-0.1,68.9-0.1,103.4c0,0,3.2,0,3.2,0c0.5,0,0.7-21.6,0.7-49.9
				c0.1-52.1-0.5-104.1-0.8-156.2C677.9,1126.7,677.8,1060.3,677.9,993.9z M675.9,883.7v-51.8C676.8,849.3,676.6,866.5,675.9,883.7z
				"/>
			<path fill="#C76628" d="M728.3,717.2h-2.8c0,22.6,0.1,38.8,0.1,45.1c0,7.1,0,14.3,0.1,21.4c0.3,91.6,0.5,183.2,0.4,274.8
				c-0.1,113-0.6,227.2-0.4,340.8c0,0,1.8,0,1.8,0c-1.1-0.7,0.4-149.9,0.4-160.5c0.3-72.4,1-144.7,0.8-217.1
				C728.4,920.2,728.2,818.7,728.3,717.2z"/>
			<path fill="#C76628" d="M695.5,952.2c-0.1-32.8-0.3-65.6-0.4-98.4c-0.1-16.4-0.1-32.8-0.2-49.2c-0.1-13.8-0.9-26.1-0.8-39.9
				c0.1-15.8,0-31.7,0-47.5h-2.9c0.2,44.6,0.6,89.2,0.5,133.8c-0.1,32.2,0,64.5,0.8,96.6c1.8,73.4,1.2,147.3,0.9,221
				c-0.3,73,0,146.1,0.4,219.1c0,0.1,0,0.3,0,0.4c0,3.7,0,7.5,0.1,11.2c1.2,0,2.3,0,3.5,0c-0.1-27-0.2-54-0.3-80.9
				C696.5,1196.3,696,1074.2,695.5,952.2z"/>
			<path fill="#C76628" d="M665.6,1106.5c0.3-65.5,0.6-132.5,0.8-198.6c0.1-33.5,0.3-67,0.4-100.4c0.1-30.1,0.1-60.2,0.1-90.3h-3
				c-0.1,22.7-0.1,45.4-0.5,68c-0.7,50.4,0.3,100.9,0.2,151.3c-0.1,25.6-0.7,51.3-0.6,76.9c0.2,37.3,0.1,74.5,0.5,111.8
				c0.2,23.7,0.3,47.6,0.4,71.3c0.2,30.1-0.1,60.3,0.4,90.4c0.4,21.4,0.1,42.9-0.1,64.4c-0.1,16-0.1,32-0.2,48c1.3,0,2.5,0,3.8,0
				c-0.2-24.8-0.4-49.6-0.5-74.4C666.9,1252.4,665.3,1178.7,665.6,1106.5z"/>
			<path fill="#C76628" d="M637.1,717.2V749c0.1-8.1,0.1-16.2,0.2-24.2c0-2.5,0-5.1,0-7.6H637.1z"/>
			<path fill="#C76628" d="M703.7,952.2c-0.1-29.1-0.3-58.1-0.4-87.2c-0.3-49.4-0.4-98.6-0.5-147.9h-2.8c0.1,34.1,0.2,58.9,0.2,66.8
				c0.3,59.7,0.7,119.3,1.2,179c0.2,26.9,0.8,53.3,0.8,80.5c-0.1,29.3-0.2,58.6-0.2,88c0.2,74.4,0.4,148.8,0.6,223.2l0.1,44.6
				c1,0,2.1,0,3.1,0c-0.1-23.9-0.2-47.8-0.4-71.7C705,1202.5,704.4,1077.4,703.7,952.2z"/>
			<path fill="#C76628" d="M686.8,1107.1c-0.6-74.5-1-149.1-1.1-223.7c-0.1-55.2,0.5-110.9,0.4-166.2h-2.4
				c-0.4,86.1-0.7,172.2,0.1,258c1.3,140.8,1.5,283,0.7,424.1c0.8,0,1.7,0,2.5,0c0-32.1,0.1-64.1,0.1-96.2c0-32.6,0.1-65.2,0-97.9
				C687.2,1172.5,687.1,1139.8,686.8,1107.1z"/>
			<path fill="#C76628" d="M660.4,1205.9c-1.1-64.3,0-128.9,0-193.3c0-74.5,0-149,0-223.5c0-24,0.1-48,0.2-71.9h-2
				c-0.1,20.9-0.1,41.8-0.3,62.6c-0.1,16.3-0.3,32.6-0.5,48.9c-0.3,25.3-0.1,50.7,0.3,76.1c0.6,41-0.7,81.8-0.4,122.8
				c0.4,57.6,1.1,115.2,1.1,172.7c0,35.4,0.1,70.9,0,106.3c0,30.8-0.3,61.7-0.2,92.6h2.3c1.1-46.4,0.9-93,0.3-139.5
				C661,1241.8,660.7,1223.8,660.4,1205.9z"/>
			<path fill="#C76628" d="M710.9,1076.4l-0.1-15.7c-0.2-32.2-0.4-64.3-0.6-96.5c-0.4-74.8-0.9-149.5-1.3-224.3
				c0-6.1,0.2-11.4,0.3-17.4c0-1.8,0.1-3.6,0.1-5.3h-2.4c0,4.3,0,8.5,0,12.8c-0.5,92.4,1.9,184.7,1.7,277.1
				c-0.3,130.6,0.1,261.4,0.2,392.2c0.7,0,1.4,0,2.2,0c-0.8-63.5-0.1-127.1-0.6-190.6c-0.1-10.4,0.8-20.6,0.7-31.2
				C710.4,1143.6,711.1,1110.1,710.9,1076.4z"/>
			<path fill="#C76628" d="M737.2,777.5c0-20.1,0.1-40.2,0.1-60.3h-2.2c0.1,41.4,0.1,82.7-0.3,124.2c-0.2,18.4-0.2,36.8,0.2,55.4
				c2,102.3-1.5,204.5-0.2,306.7c0.2,16.8-0.3,33.4-0.4,50.2c-0.2,48.6,0.5,97.2-0.5,145.7h2.3c0-23.1-0.1-46.2,0.3-69.4
				c0.6-36.9-0.2-73.9,0-110.9C737.2,1071.8,737.2,924.8,737.2,777.5z"/>
			<path fill="#C76628" d="M714.7,952c0-42.5-0.1-85-0.1-127.5c0-35.9-0.4-71.6-0.7-107.4H712c0.6,122,1.1,244.6,1.1,366.7
				c0,67.9-0.1,135.8-0.1,203.6c0,37.2,0,74.5-0.1,111.7c0.7,0,1.4,0,2.1,0c-0.1-83.9-0.1-167.8-0.2-251.7
				C714.8,1082.4,714.7,1017.2,714.7,952z"/>
			<path fill="#C76628" d="M654.5,1120.9c-0.1-23,0.2-46,0-68.9c-0.2-27.4-0.6-54.7-0.5-82.1c0-0.7,0-1.3,0.1-2
				c0.1-2.9,0.2-5.8,0.4-8.8c0-0.7,0-1.4,0-2c0-29.2,0-58.3,0-87.5c-0.6-1.3-0.6-2.7-0.1-4.3c-0.1-5.2-0.2-10.5-0.3-15.7
				c-0.6-3.5-0.6-6.7,0.4-9.4c0.1-11.7,0.3-23.5,0.4-35.2c-1-3.3-1-6.5,0-9.7c0-5.3,0-10.5,0.1-15.7c-0.6-5.4-0.6-10.9,0-16.3
				c0-2.9,0-5.9,0-8.8c-0.3-3.7-1.2-7.4,0-11.1c0.1-4.1,0.2-8.2,0.3-12.4c0-4.6,0-9.3,0-13.9h-1.5c0,25.9-0.1,51.8-0.5,77.8
				c-0.4,29-0.5,57.9-0.5,86.9c0.6,10.8,0.6,21.6,0.1,32.4c0,1.7,0,3.4,0,5.1c0.1,0.7,0.2,1.4,0.3,2.1c-0.3,18.2-0.4,36.3-0.6,54.5
				c-0.3,19.4,0,38.8,0.2,58.1c0.1,21.2,1,42.3,1,63.5c0,100.6,0.6,201.2-0.4,301.7h1.8c-0.2-22.6,0.6-45,0.5-67.6
				c-0.1-11-0.3-22.2,0-33c0.7-22,0-44,0.1-66C655.6,1195.5,654.8,1158.2,654.5,1120.9z"/>
			<path fill="#C76628" d="M638.9,717.2c0,5.8,0,11.5,0.1,17.3c0.3,46.3-1.1,92.5-0.8,138.6c0.5,76.8-0.1,153.6,0.5,230.3
				c0.3,35.5,0.4,71.1,0.6,106.6c0.2,39.3,0.5,78.8,0.1,118.1c-0.3,23.8-0.1,47.5-0.4,71.2h0.9c-0.2-15.1,0.5-30.1,0.4-45.2
				c0-27.2-0.3-54.5,0.2-81.5c0.6-33.1,0.1-66.2,0-99.2c-0.1-23.8-0.5-47.8-0.3-71.5c0.3-36.7-0.3-73.3,0-110
				c0.3-33,0.4-66.2-0.2-99.3c-0.6-30.6,0.3-61.1,0.5-91.7c0.2-25.7,0.3-51.3,0.5-77c0-2.2,0-4.4,0-6.7H638.9z"/>
			<polygon fill="#C76628" points="709,817.2 709.1,817 709.1,817.4 			"/>
			<path fill="#C76628" d="M687.2,1340.6c0.1,0.1,0.2,0.2,0.2,0.3c0,0.5,0,0.9-0.1,1.4c-0.1-0.1-0.1-0.2-0.1-0.3
				C687.2,1341.5,687.2,1341,687.2,1340.6z"/>
		</g>
	</g>
</g>
<g>
	<path fill="#C56224" d="M1147.9,850.9c-5.6-9.2-10.8-16-17.2-23.6c-6.6-7.9-13.5-15.6-20.4-23.3c-15.4-17.4-29.1-36.2-44.4-53.7
		c-13.1-15-26.7-29.7-40.1-44.4c-3.2-2-6.4-3.9-9.7-5.7c-0.2-0.1-0.4-0.2-0.6-0.3c-10.7-2.5-21.8-2.5-32.9-3
		c-12.8-0.6-25.6-0.7-38.4-0.7c-14.5,0.3-29,0.4-43.6,0.1c-13.4-0.2-26.8-0.5-40.3-0.7c-23.9,0-47.8,0-71.6,0
		c-30.8,0.6-61.6,1.8-92.4,3.1c-70.6,3-141.5,6.3-212.2,2.4c-27.2-1.5-54.1-4.3-81.2-5.5h-96.5c-0.4,0-0.9,0.1-1.3,0.1
		c0.7,0-3.2,0.6-3,0.6c-0.5,0.1-1,0.2-1.5,0.4c-2.4,4.7-2.5,10.3-2.3,15.7c0.3,6.6-0.3,13-0.6,19.6c-0.2,3.2-0.5,7.1,0.8,10.1
		c1.4,3.2,5.3,3.7,8.6,3.9c6.2,0.3,12.3-0.5,18.5-0.6c3,0,3.5,3.9,0.7,4.7c-8.8,2.4-17.9,4.5-27,4.8c0.4,0.4,0.7,0.9,0.7,1.6
		c-1.3,24.4-2.1,48.8-2.5,73.3c-0.3,17.4,0,34.8-0.6,52.2v33.7c1.1,5.9,3.4,11.7,10.8,12.6c8.6,1.1,17.2-0.7,25.8-0.8
		c11.5-0.2,22.9,1.3,34.3,2c2.3,0.2,3.9,3.4,1.3,4.5c-11.3,4.8-24.5,4.3-36.7,4.6c-10.5,0.3-26.6-0.3-33.9,8.2
		c-0.6,0.7-1.1,1.5-1.6,2.3v51.2c0,0.2,0,0.4,0.1,0.6c1,7.7,1.1,15.2,1.5,22.9c0.3,6.2,0.4,13.1,2.7,19.1h716.6
		c2.5-0.2,5.1-0.5,7.5-1.3c1.4-0.4,2.7-0.9,4-1.5c0.1-0.1,0.3-0.1,0.4-0.2c0.7-0.4,1.5-0.9,2.2-1.4c1.3-2.2,3.4-4,6.1-5
		c1-0.9,2-1.9,2.9-2.8c6.2-6.2,11.6-13,17.5-19.6c1.5-2,3-4,4.6-5.9c7.5-8.9,15.2-17.6,23-26.1c0.8-0.9,1.6-1.7,2.4-2.6
		c1.8-2.4,3.6-4.8,5.5-7.3c3.3-4.3,6.6-8.6,10-12.9c2.7-3.4,3.3-4.2,5.7-7.4c10.8-14.2,21.3-28.8,29.9-44.4
		c4.1-7.4,8.1-15.2,10.6-22.2c1.5-4.1,2.9-8.3,3.9-12.6c0.4-1.7,0.8-3.3,1-5C1153.3,860.1,1151.1,856.1,1147.9,850.9z"/>
	<g>
		<path fill="#B95224" d="M484.9,791.3c-2.1,0-4.2,0-6.4,0c2.5,0.5,4.9,1,7.4,1.5c-62.5,1.1-125,1.8-187.6,2.5
			c-0.1,3.1-0.2,6.2-0.3,9.3c2.1,0,4.3,0.1,6.4,0.2c75.7,3.3,153.2-0.8,229-2c77.6-1.3,155.1-2.6,232.7-3.9
			c30.2-0.5,59.8-1.2,89.8-0.7c26,0.5,52.1,0.9,78.1,1.4c0.1-2.6,0.2-5.2,0.3-7.8C934.1,795.3,515.7,791.4,484.9,791.3z"/>
		<path fill="#B95224" d="M459.3,708.5c-20.3-0.8-41,2.5-61.2-1.8c-4.1-0.9-11,0.3-10.4-3.7c0.6-3.7,7.1-3.7,12.2-4
			c5.9-0.4,12.8,1.1,16.9-2.7c-1.8-0.1-3.6-0.2-5.5-0.3H303.7c-0.8,0.1-1.7,0.3-1.6,0.3c-0.5,0.1-1,0.2-1.5,0.4
			c-2.4,4.7-2.5,10.2-2.3,15.6c8.1,0.1,16.2,0.3,24.3,0.3c13.6,0.1,27.4-1.5,41-1.1c40.1,1.3,80.3,1.3,120.5,1.3
			C478.9,705.2,467.4,708.9,459.3,708.5z"/>
		<path fill="#B95224" d="M1056.8,1012.7c-12.7,0.1-25.4,0.4-38,0.7c-61.7,1.6-123.4-0.1-185.1,1.3c-60.3,1.3-120.6,4.2-181,2.8
			c-44.9-1.1-89.7,1.3-134.4,1.2c-48.7,0-97.4-3.3-146.1-4c-24.7-0.4-49.3-2.1-74.1-2.1c0.1,1.2,0.1,2.3,0.2,3.5
			c61.2-0.1,122.3,1.1,183.4,4.1c31.1,1.5,62.4-0.3,93.7-0.9c87.8-1.6,175.6,1,263.4-1.5c44-1.3,88.1-0.3,132.2-0.3
			c27.3,0,54.6,0,81.9,0C1054,1015.8,1055.4,1014.2,1056.8,1012.7z"/>
		<path fill="#B95224" d="M1062.5,1005.5c-41.9,0-83.7,0-125.6-0.4c-87-0.8-173.7,3.1-260.6,3.1c-44,0-87.9-1.9-131.9,0
			c-10.5,0.5-20.9,1.6-31.9,0.9c-25.5-1.7-51.4-3.6-76.8-2.7c-43.7,1.5-87.2-1.3-130.8,0.2c-2.4,0.1-4.8,0.1-7.3,0.2
			c0,0.5,0.1,1,0.1,1.5c33.5-0.1,67-0.3,100.5,0.3c31.2,0.5,62.3,2.3,93.4,3.9c21.1,1.1,41.9-0.9,62.9-1
			c67.3-0.2,134.6,0.5,201.9-0.3c60.7-0.7,121.3-3.1,182.1-2.9c40.5,0.1,81,0.2,121.6,0.2
			C1060.9,1007.5,1061.7,1006.5,1062.5,1005.5z"/>
		<path fill="#B95224" d="M1044.6,1026.6c1.2-1.3,2.4-2.6,3.5-3.9c-55.2-0.3-110.5,0.6-165.7,1c-17.5,0.1-35.1,0.5-52.6,0.8
			c-41.9,0.8-84,0.4-126,0.2c-25.1-0.1-50.3-1.1-75.4-0.8c-44.5,0.5-89,2.8-133.4,2.2c-25.3-0.3-50.9-1.8-76.3-2.7
			c-21.3-0.8-42.6,0.9-63.8-0.2c-18.8-1-37.6-1.2-56.4-1.1c0,0.5,0.1,1.1,0.1,1.6c0,0.7,0.1,1.5,0.1,2.2c7.5,0.2,14.9,0.3,22.4,0.3
			c71.1-0.3,142,2.9,213.1,3.3c18.8,0.1,37.6-1.2,56.4-1.3c92.9-0.9,185.9,1,278.9-1.2c55.5-1.3,111.2-0.4,166.8-0.4
			C1039,1026.6,1041.8,1026.6,1044.6,1026.6z"/>
		<path fill="#B95224" d="M1071.1,995.5c-12.3,0.3-24.6,0.8-36.8,1.5c-0.3,0-0.5,0.8-1.3,2.3c11.7,0,23.3,0,34.8,0
			C1068.9,998,1070,996.7,1071.1,995.5z"/>
		<path fill="#B95224" d="M942.5,906.5c-15.7,4.3-32,5.4-49.2,4.1c-6.4-0.5-7.9-2.2-7.8-5.4c16-3.9,33.1,0.4,49.3-2.3
			C939.7,902.2,941.7,904,942.5,906.5z"/>
		<path fill="#B95224" d="M296.9,906.9c47.2-0.2,94.5,0.4,141.7,1.9c97.4-0.3,195.1,2.1,292.5,0.4c-0.1,0.1-0.2,0.1-0.3,0.2
			c3.6,0.2,7.2,0.5,10.1-0.5c3.4-0.1,6.9-0.2,10.3-0.3c2.2,1.1,4.9,0.9,7.9-0.3c2-0.1,1.9-1.7,0-1.8c-91.3-6.1-185.2-4.2-277-5.4
			c-61.7-0.8-123.4-1.2-185.2-1.8V906.9z"/>
		<path fill="#B95224" d="M333,996.4c-12-0.2-24-0.5-36-0.7v3.4c54.4,0,108.8,0.4,163.1,3.1c37.7,1.9,75.2,0.4,112.8,0.1
			c64.6-0.5,129.2,0,193.8-0.3c17.6-0.1,35.1-1.4,56-2.3c-8.2-2.8-13.4-2.2-18.3-1.9c-30.2,2.3-60.7,1.7-91,2.5
			c-28.5,0.8-57.2-0.7-85.8-1.2c-51.3-0.9-102.6,2.9-153.8,0.3C426.9,997.2,379.9,997.4,333,996.4z"/>
		<path fill="#B95224" d="M533,991.6c15.5-2.1,30.9-2.1,46.5-0.2C564,990.4,548.6,995.4,533,991.6z"/>
		<path fill="#B95224" d="M586.8,991.4c1-0.4,2-0.7,3-1.1C588.8,990.7,587.8,991,586.8,991.4z"/>
		<path fill="#B95224" d="M1150.2,881.7c1.4-4,2.7-8.1,3.7-12.2c0.4-1.7,0.8-3.3,1-5c0,0,0,0,0,0c-15.5,0.4-30.9,0.7-46.4,1.1
			c-1.1-0.5-2.4-0.8-3.9-0.8c-59.1-0.9-118.7-1.7-177.5,1.6c-8.8-0.1-17.5-0.2-26.2-0.1c-1.1-0.3-2.2-0.3-2.6,0
			c-6.6,0.1-13.2,0.3-19.7,0.6c-0.6,0-1.2,0.1-1.7,0.2c-4.2-0.5-3.9,0.7-5.6,2.9c-0.2,0.3-0.3,0.5-0.5,0.8c-0.7,0.1-1.5,0.2-2.2,0.2
			c-6.5,0.2-13,0.4-19.4,0.6c-183.2,5.4-368.3,2.4-552,0.5c-0.1,3-0.1,6-0.3,9c25.2-0.1,50.4-0.2,75.5-0.3c1,0,2,0,3,0
			c40.6-0.2,80.9,2.2,121.6,2.4c37.7,0.2,75.3,0.3,112.9,0.2c58.9-0.2,117.8-0.7,176.9-1.4c1.3,0.7,3.2,1.2,5.6,1.2
			c14.7-0.3,29.4-0.6,44.1-1c1.3,1,3.3,1.6,5.9,1.4c11.2-0.6,22.4-1.4,33.5-2.4c4.8-0.1,9.5-0.2,14.3-0.3c1.7,0,3-0.3,4.2-0.8
			C979.8,881.5,1065,882,1150.2,881.7z"/>
		<path fill="#B95224" d="M1073.3,865.8L1073.3,865.8L1073.3,865.8z"/>
		<path fill="#B95224" d="M678.3,768.9c-6.1,1.1-10-0.1-13.9-1.1C668.6,767.4,672.9,766.7,678.3,768.9z"/>
		<path fill="#B95224" d="M1076.8,763.3c-39.4-0.8-78.9-1.6-118.3-2.4c-155.2-3.2-309.5-3.1-464.7-1.6c-40.3-2.1-80.6-4.2-120.9-6.4
			c-17.7-0.9-35.1-1.3-52.5-1.4c-6.9,1.7-13.9,3-21,3.2c0.4,0.4,0.7,0.9,0.7,1.6c-0.2,4.5-0.4,9-0.7,13.5
			c36.3,0.6,72.4,1.2,108.7,0.2c53.1-1.5,106.3-2.6,159.5-3.3c106.4-1.5,212.8-1.5,319.1,0c56.8,0.8,113.4,2.2,170.1,3.8
			c8.8,0.2,17.7,0.5,26.5,0.8C1081.2,768.7,1079,766,1076.8,763.3z M426.5,763.9c6.6,0.1,13.2,0.2,19.7,0.3
			C439.6,764.5,433,764.5,426.5,763.9z"/>
		<path fill="#B95224" d="M978.3,777.7c-1-0.4-1.9-0.8-2.9-1.1C976.4,777,977.4,777.3,978.3,777.7z"/>
		<path fill="#B95224" d="M1115.8,940.4c-55.7,0-111.4-0.1-167.2-0.2c-53.4-0.1-106.7-0.2-160.1-0.3c-62.3-0.1-122.9,0-185.1-2.3
			c-92.1-3.3-183.4,1.5-275.4,1.5c-4.8,0.2-9.6,0.3-14.5,0.4c-6,1-11.5,3-15.1,7.1c-0.6,0.7-1.1,1.5-1.6,2.3v0.5
			c7.4,0.1,14.7,0.1,22.1,0.1c74.6-0.1,149.3-1.8,223.9-2.7c0.1,0,0.2,0,0.3,0c31.9-1.1,65.6,1.3,97.6,1.7
			c12.4,0.1,24.9,0.3,37.3,0.4c144.7,1.2,289.4,0.3,433.9-3.4C1113.3,943.8,1114.6,942.1,1115.8,940.4z"/>
		<path fill="#B95224" d="M774.7,848c1,0,2,0,3,0C776.7,847.9,775.7,848,774.7,848z"/>
		<path fill="#B95224" d="M734,713.7c-11.3,0.4-22.7,0.8-33.8-1.3C711.7,710.9,723.2,709.1,734,713.7z"/>
		<path fill="#B95224" d="M677.1,712.3c-7.7,0-15.5,0-23.2,0C661.6,710.5,669.4,710.6,677.1,712.3z"/>
		<path fill="#B95224" d="M687.8,712.1c-2,0-3.9,0-5.9,0C683.8,710.2,685.8,710.2,687.8,712.1z"/>
		<path fill="#B95224" d="M646.4,712.2c-1,0-1.9,0.1-2.8,0.1C644.5,712.3,645.4,712.3,646.4,712.2z"/>
		<path fill="#B95224" d="M638.7,712.4c-1-0.4-2-0.8-2.9-1.1C636.7,711.6,637.7,712,638.7,712.4z"/>
		<path fill="#B95224" d="M738.8,829.8c1.7-0.6,3.9-1,5.1-1.9c6.5-4.9,11.9-4.4,18.1,1.7C754.3,831.7,746.6,831.4,738.8,829.8z"/>
		<path fill="#B95224" d="M1138.6,837.2l-507,3.3c-111.4,0.7-222.8,1.7-334.2,2.6c0,4.2,0,8.3,0,12.5c18.1-0.1,36.1-0.3,54.2-0.6
			c22-0.3,46.1-1,68.8-1.8c20.8-0.8,46-5,66.3-1.7c2.2,0.4,4.5,0.6,6.8,0.6c104.2,0.2,208.4-2.7,312.5-3.2
			c107-0.5,214-1.2,320.9-2.2c2.3,0,9-0.1,18.2-0.2C1142.9,843.2,1140.8,840.2,1138.6,837.2z"/>
		<path fill="#B95224" d="M961.7,818.5c-28.7-8.2-58.2-5.4-88.9-6c-32.3-0.7-64.8-0.7-97.2-0.5c-93,0.5-186.1,1.5-279.2,2.2
			c12.1-1.7,24.2-3.3,36.3-5c-15,2.2-34.9,0.3-50.5,0.6c-17.9,0.3-35.7,0.9-53.6,1.4c-37.8,1-75.6,2-113.5,1.6
			c-5.8-0.1-11.6-0.1-17.4-0.1c-0.1,4.9-0.2,9.8-0.3,14.7c5.1-0.1,10.2-0.3,15.3-0.7c2.5-0.2,5.1,0.2,7.6,0.4
			c22.9,1.8,44.1-0.8,66.7-1c26.5-0.2,53-0.3,79.4-0.5c53-0.3,105.9-0.7,158.9-1c-5.9-0.5-11.7-1-17.6-1.5
			C725.9,821.4,843.8,819.9,961.7,818.5z"/>
		<path fill="#B95224" d="M885.5,819.7c1.8-0.6,3.5-0.5,5.2,0.2C889,819.8,887.3,819.8,885.5,819.7z"/>
		<path fill="#B95224" d="M486.8,987.1c-5,1.8-9.7,2.1-13.4-1.2C478,985.7,482.7,985.5,486.8,987.1z"/>
		<path fill="#B95224" d="M422.9,984.6c-4.7,3.2-9.3,3.4-13.9-0.1C413.7,984.5,418.3,984.6,422.9,984.6z"/>
		<path fill="#B95224" d="M515.5,986c-1.9,2-3.9,2.1-6.1,0.2C511.4,986.1,513.4,986.1,515.5,986z"/>
		<path fill="#B95224" d="M659.2,987.1c-0.9-0.1-1.9-0.1-2.8-0.2C657.3,987,658.3,987,659.2,987.1z"/>
		<path fill="#B95224" d="M643.8,985.7c-1,0-1.9,0.1-2.9,0.1C641.9,985.8,642.8,985.8,643.8,985.7z"/>
		<path fill="#B95224" d="M296.9,985.6c2.5,0,5,0,7.5,0.1c11.2,0.1,22.4,0.2,33.6,0.3c1.7,0.4,3.5,0.4,5.2,0c4.1,0,8.1,0.1,12.2,0.1
			c16.9,0.1,34.3,1,51,0c2.3-0.1,3.3-2.4,0.6-2.6c-31.7-2.9-65.6-1.8-97.6-2.4c-4.2-0.1-8.4-0.2-12.6-0.2V985.6z"/>
		<path fill="#B95224" d="M576.9,809.5c-2.6-0.3-5.3-0.7-7.9-1C571.6,808.9,574.3,809.2,576.9,809.5z"/>
		<path fill="#B95224" d="M896.9,775.8c-25.8-0.2-52.2,0.5-78.3,0.3c-61.6-0.4-123,1.4-184.5,1.4c-33.7,0.8-67.5-1.4-101.4-1.4
			c-41.5,0-82.8,2.4-124.3,2.8c-36.6,0.4-73.1,0.9-109.6,1.5c-0.1,2.8-0.2,5.7-0.3,8.5c27.7-0.3,55.3-0.6,83-1
			c202-3,404.3-2.1,606.3-3.1C958.8,781.9,926.5,776,896.9,775.8z"/>
		<path fill="#B95224" d="M965,784.3c1,0.4,1.9,0.8,2.9,1.1C966.9,785,965.9,784.6,965,784.3z"/>
		<path fill="#B95224" d="M298.1,725c0.9-0.6,1.8-1.1,2.8-1.5c2.7-0.6,5.6-1,8.6-1.2c2.7-0.2,4.3-1.3,4.9-2.6
			c3.4-0.4,6.9-0.6,10.7-0.5c-1.8-0.6-3.6-1.3-5.4-1.9c-1.7,0-3.4,0.1-5.1,0.1c-0.6-2-3.1-3.8-7-3.6c-3.2,0.1-6.2,0.5-9.2,0.8
			C298.5,718.1,298.3,721.6,298.1,725z"/>
		<path fill="#B95224" d="M485.9,735.3c-35.6-0.2-71.2-0.2-106.8-0.3c-27.1-0.1-54.4,0.2-81.4-1.5c-0.1,2.8-0.2,5.9,0.9,8.4
			c0.1,0.2,0.2,0.4,0.3,0.5c16.4,0.9,32.9,1.1,49.4,1.2c1.8,0.5,4.3,0.8,7.6,0.9c4.2,0.1,8.1-0.3,11.9-0.9c0.4,0,0.8,0,1.2,0
			c35.6,0,71.2-0.1,106.8-0.1c72.6-0.1,146.3,0.8,218.7-2.5c0.5,0,1-0.1,1.3-0.3c2.7,0,5.3,0.1,8,0c59.1-1.6,119,1,178.3,2.1
			c13.3,0.3,29-0.1,36.7-6.5C774.4,732.6,630.2,735.3,485.9,735.3z"/>
	</g>
	<g>
		<path fill="#A83A24" d="M1083.3,771.3c-34.7-1-62.1-2.1-68.8-2.3c-32.2-1-64.3-2.2-96.5-2.6c-77.8-1-155.5-1.8-233.3-1.7
			c-2,0-4,0-6,0c-94.4,0.2-187.8,3.6-282.2,4.4c-32.1,0.3-64.5,0.4-97,0.4c-0.2,3.9-0.4,7.9-0.5,11.8c10.9-0.4,21.7-0.8,32.5-1.4
			c47.2-2.3,95.5-1.9,142.9-2.8c134.1-2.7,268.4-0.1,402.5-1c10.6-0.1,21.2-1.1,31.8,0.2c24.9,3,55.1-0.1,80.6,0.1
			c32.1,0.3,64.1,0.5,96.2,0.7c0.8,0,1.7,0,2.5,0C1086.5,775.2,1084.9,773.3,1083.3,771.3z M664.3,767.8c4.3-0.5,8.6-1.1,13.9,1.1
			C672.2,770,668.3,768.8,664.3,767.8z"/>
		<path fill="#A83A24" d="M1126.5,916.9c1.8,0,3.6,0.1,5.4,0.1c2.6-4.1,5.1-8.3,7.5-12.5c-53.4,0.5-106.8,1.7-160.2,2.4
			c-95.2,1.2-190.5,1.5-285.7,1.4c-48.2-0.1-96.3-0.2-144.5-0.4c-84-0.3-168.1-0.5-252.1,0.1v7.5c0.2,1.2,0.5,2.5,0.9,3.7
			c145.8,1.2,292,0.3,437.6-1.2c45.6-0.5,91.4,0.3,137.2,0.1C957.2,917.8,1042,915.2,1126.5,916.9z M461.4,914.7
			c24.9-2.8,49.6-2.3,74.2,0H461.4z"/>
		<path fill="#A83A24" d="M1059.8,743.3c-7.8-0.1-13.2-0.2-15.2-0.3c-103.8-0.8-207.4-3.2-311.2-2.6c-145,0.8-290,1.4-435,1.1
			c0.1,0.2,0.1,0.3,0.2,0.5c1.4,3.2,5.3,3.7,8.6,3.9c6.2,0.3,12.3-0.5,18.5-0.6c3,0,3.5,3.9,0.7,4.7c-0.8,0.2-1.6,0.4-2.5,0.7
			c18.2-0.1,31.3-0.2,37.6-0.2c10.2-0.1,20.4-0.1,30.7-0.2c131.4-0.8,262.6-1.6,394-1.2c92.8,0.3,186.2,0.8,279.7,1.2
			C1063.9,748,1061.8,745.6,1059.8,743.3z"/>
		<path fill="#A83A24" d="M1147.9,850.9c-1.3-2-2.5-4-3.7-5.8c-170.1,1.6-340.2,3.3-510.4,4.9c-47,0.5-94,0.9-141,1.4
			c-23.5,0.2-47,0.5-70.5,0.7c-19.7,0.2-37.4,2.9-57.2,2.8c-22.6-0.2-45.1-0.1-67.7-0.1c0,3.2,0,6.4-0.1,9.6
			c63.8-0.6,127.6-2.1,191.4-1.7c46.2,0.3,92.4-0.1,138.5-2.8c105.3-6.1,211.2-4,316.8-3.1c69.1,0.6,138.2,0.4,207.3-0.2
			C1150.3,854.9,1149.2,853,1147.9,850.9z"/>
		<path fill="#A83A24" d="M1109.5,948.8c1.2-1.5,2.3-3.1,3.5-4.6c-86,2.1-172.8,5.6-258,4.8c-93.9-0.9-189.9-1.9-284.7-2.8
			c-48-0.5-96-0.9-144-1.3c-41.9-0.3-83.7-0.4-125.6-0.3c-0.8,0.6-1.5,1.3-2.2,2c-0.6,0.7-1.1,1.5-1.6,2.3v5.4
			c32.5,0.4,65,0.5,97.5,1.5c72.3,2.3,144.6-1,216.9-0.6c36.7,0.2,73.5,2.4,110.2,2.1c53.4-0.5,106.8-0.4,160.2-1.5
			c34-0.7,68.2-0.9,102.3-1.4c40.7-0.7,81.5,0.3,122.2-1.2C1107.2,951.9,1108,950.8,1109.5,948.8z"/>
		<path fill="#A83A24" d="M301.2,1042.5c0.1,0.2,0.1,0.4,0.2,0.6h41.2c-11.6-0.2-23.2-0.4-34.7-0.6
			C305.6,1042.6,303.4,1042.5,301.2,1042.5z"/>
		<path fill="#A83A24" d="M1121.8,817c-162.6,1.9-325.3,3.8-487.9,5.7c-41.7,0.5-83.3,1-125,1.5c-70.5,0.8-140.9,1.3-211.3,1.5
			c0,1.3-0.1,2.6-0.1,4c0,1.7,0,3.5-0.1,5.2c48.6-0.3,83.9-0.6,95.2-0.7c85.5-1,171.1-2.4,256.6-4.1c38.5-0.8,76.4-2.8,115.4-2.6
			c42,0.2,84,0.8,126.1,0.5c79.7-0.5,159.4-1,239.2-1.6C1127.2,823.2,1124.5,820.1,1121.8,817z"/>
		<path fill="#A83A24" d="M1148.9,885.3c0.4-1,0.8-2.1,1.2-3.1c0.5-1.5,1.1-3,1.6-4.6c-4.9,0-9.9,0-14.8,0
			c-46.8-0.2-93.5-0.3-140.3-0.2c-46.9,0.1-93.8,0.5-140.7,1.4c-106.8,2-213.7,3.2-320.6,3.6c-79.1,0.3-159-1.6-238.3-1.2
			c0,0.2,0,0.4,0,0.6v7.4c123.4,1.2,246.9,2.2,369.8-0.5C826.9,885.3,988.1,884.3,1148.9,885.3z"/>
		<path fill="#A83A24" d="M1093.9,969.1c1.6-2.2,3.3-4.3,5-6.4c-8,0.2-16.1,0.4-24.1,0.7c-25.8,0.8-51.5,1.8-77.2,2.8
			c-92.1,3.6-184.8,0.1-277.1,0.1c-106.8,0-213.6,0-320.3,0c-34.4,0-68.7-0.3-103-0.5v6.5c29.9,0.2,59.9,0.5,89.8,1
			c23.4,0.4,46.8,0.9,70.1,1.6c36.3,1.1,72.7,0.2,109.1-0.9c58.7-1.9,117.3,2.3,176,1.3c82.5-1.5,165.1-3.7,247.6-3.7
			c34.2,0,68.4-0.1,102.6-0.1C1092.8,970.5,1093.3,969.8,1093.9,969.1z"/>
		<path fill="#A83A24" d="M1110.3,804c-1-1.1-2-2.3-2.9-3.4c-35.3,0-70.6,0-105.9,0.7c-14.9,0.3-29.6-2.6-44.7-2.2
			c-48.6,1.4-96.6-0.7-145,0l-22.5,0.3c-46.1,0.6-92.2,1.3-138.3,1.9c-107.2,1.5-214.3,2.9-321.5,4.4c-8.7,0.1-16.4-0.6-25-0.9
			c-2.2-0.1-4.3-0.1-6.4-0.2c-0.1,2.6-0.2,5.3-0.2,7.9c5.8,0,11.6,0,17.4,0.1c132.5,1.5,264.7-6.1,397.2-5.5
			c133.4,0.6,266.9,0.2,400.4-0.2C1112,806,1111.2,805,1110.3,804z"/>
		<path fill="#A83A24" d="M1034,714.9c-5.9,0-11.9,0-17.8-0.1c-211-2.9-421.8-2.7-632.8-2.8c-28.4,0-56.7-0.2-85.1-0.4
			c0,0.2,0,0.5,0,0.7c0.1,2.2,0.1,4.4,0,6.6c58.8-0.2,117.5-0.3,176.6,1c26.4,0.8,52.8,0.6,79.4-0.6c146.6-6.5,293.1,5,439.7,0.8
			c15.2-0.4,30.3,0.1,45.4,0.6C1037.6,718.8,1035.8,716.9,1034,714.9z"/>
		<path fill="#A83A24" d="M1095,785.9c-60.4,0.1-120.8,0.2-181.1,0.3c-93.4,0.1-186.9,0.3-280.3,0.4c-60.9,0.1-121.8,0.2-182.7,0.3
			c-50.9,0.1-101.5,1.3-152.2,2.3c-0.1,2.1-0.1,4.1-0.2,6.2c174.4-1.9,349.6-3.8,524.2-3.5c92.5,0.1,185,0.3,277.5,0.4
			C1098.4,790.1,1096.7,788,1095,785.9z"/>
		<path fill="#A83A24" d="M1077.6,988.2c2-2.3,4.1-4.5,6.2-6.8c-16,0.2-31.9,0.8-47.8,0.7c-53.4-0.1-106.8,2.6-160.2,3.4
			c-32.9,0.5-66-0.6-98.8-0.1c-39.2,0.5-78.4,2-117.7,1.8c-0.9-0.1-1.9-0.1-2.8-0.2c-4.2-0.4-8.4-0.8-12.6-1.2c-1,0-1.9,0.1-2.9,0.1
			c-41.8,0.1-83.6,0.1-125.4,0.1c-1.9,2-3.9,2.1-6.1,0.2c-7.5,0.3-15,0.6-22.5,0.9c-5,1.8-9.7,2.1-13.4-1.2
			c-16.8-0.5-33.7-0.9-50.5-1.4c-4.7,3.2-9.3,3.4-13.9-0.1c-7.5-0.1-15-0.2-22.6-0.2c-7.8,2.1-15.6,2-23.4,0c-4.2,0-8.4,0-12.7,0
			c-5.3,1-10.5,4-15.8,0c-5.9-0.3-11.8-0.8-17.7-0.8c-6.6,0-13.3-0.1-19.9-0.1v5.1c37.2,0,74.3,0.4,111.5,1.7
			c41.5,1.4,83.1,1.7,124.6,1.5c15.5-2.1,30.9-2.1,46.5-0.2c2.4,0,4.9,0,7.3,0c1-0.4,2-0.7,3-1.1c26,1,52.1,1.3,78.1,2.1
			c27.9,0.8,55.6-0.1,83.3-0.5c30.4-0.5,60.7-3.2,91-3.2C920.6,988.8,999.1,988.2,1077.6,988.2z"/>
		<path fill="#A83A24" d="M1038,1033.2c0.7-0.6,1.3-1.3,2-1.9c-29.7,0-59.5,0.7-89.2,0.9c-34.1,0.3-68.5,1.7-102.4,1.1
			c-52.6-1-105.1,1-157.7,0c-47.3-0.9-94.9-1.4-142.4,0.8c-43.8,2-87.7-0.9-131.5-1.5c-36.8-0.5-73.6-1-110.3-1.7
			c-2.5-0.1-5,0-7.5,0c0.2,2.1,0.4,4.2,0.8,6.2c7.3-0.1,14.7-0.1,22-0.2c66.4-0.9,132.6,3.7,198.7,2.7
			c110.1-1.7,220.1,0.4,330.1-1.5c50.9-0.9,101.9-1.4,152.7-1.9c10.1-0.1,20.3-0.2,30.5-0.3
			C1034.9,1034.7,1036.4,1033.8,1038,1033.2z"/>
		<polygon fill="#A83A24" points="440.3,805.2 440,804.9 440.5,805 		"/>
	</g>
</g>
<g>
	<path fill="#E48E3C" d="M1140.2,827.2c-5.6-9.2-10.8-16-17.2-23.6c-6.6-7.9-13.5-15.6-20.4-23.3c-15.4-17.4-29.1-36.2-44.4-53.7
		c-13.1-15-26.7-29.7-40.1-44.4c-3.2-2-6.4-3.9-9.7-5.7c-0.2-0.1-0.4-0.2-0.6-0.3c-10.7-2.5-21.8-2.5-32.9-3
		c-12.8-0.6-25.6-0.7-38.4-0.7c-14.5,0.3-29,0.4-43.6,0.1c-13.4-0.2-26.8-0.5-40.3-0.7c-23.9,0-47.8,0-71.6,0
		c-30.8,0.6-61.6,1.8-92.4,3.1c-70.6,3-141.5,6.3-212.2,2.4c-27.2-1.5-54.1-4.3-81.2-5.5h-96.5c-0.4,0-0.9,0.1-1.3,0.1
		c0.7,0-3.2,0.6-3,0.6c-0.5,0.1-1,0.2-1.5,0.4c-2.4,4.7-2.5,10.3-2.3,15.7c0.3,6.6-0.3,13-0.6,19.6c-0.2,3.2-0.5,7.1,0.8,10.1
		c1.4,3.2,5.3,3.7,8.6,3.9c6.2,0.3,12.3-0.5,18.5-0.6c3,0,3.5,3.9,0.7,4.7c-8.8,2.4-17.9,4.5-27,4.8c0.4,0.4,0.7,0.9,0.7,1.6
		c-1.3,24.4-2.1,48.8-2.5,73.3c-0.3,17.4,0,34.8-0.6,52.2v33.7c1.1,5.9,3.4,11.7,10.8,12.6c8.6,1.1,17.2-0.7,25.8-0.8
		c11.5-0.2,22.9,1.3,34.3,2c2.3,0.2,3.9,3.4,1.3,4.5c-11.3,4.8-24.5,4.3-36.7,4.6c-10.5,0.3-26.6-0.3-33.9,8.2
		c-0.6,0.7-1.1,1.5-1.6,2.3v51.2c0,0.2,0,0.4,0.1,0.6c1,7.7,1.1,15.2,1.5,22.9c0.3,6.2,0.4,13.1,2.7,19.1h716.6
		c2.5-0.2,5.1-0.5,7.5-1.3c1.4-0.4,2.7-0.9,4-1.5c0.1-0.1,0.3-0.1,0.4-0.2c0.7-0.4,1.5-0.9,2.2-1.4c1.3-2.2,3.4-4,6.1-5
		c1-0.9,2-1.9,2.9-2.8c6.2-6.2,11.6-13,17.5-19.6c1.5-2,3-4,4.6-5.9c7.5-8.9,15.2-17.6,23-26.1c0.8-0.9,1.6-1.7,2.4-2.6
		c1.8-2.4,3.6-4.8,5.5-7.3c3.3-4.3,6.6-8.6,10-12.9c2.7-3.4,3.3-4.2,5.7-7.4c10.8-14.2,21.3-28.8,29.9-44.4
		c4.1-7.4,8.1-15.2,10.6-22.2c1.5-4.1,2.9-8.3,3.9-12.6c0.4-1.7,0.8-3.3,1-5C1145.6,836.4,1143.4,832.5,1140.2,827.2z"/>
	<g>
		<path fill="#D87E2C" d="M477.3,767.7c-2.1,0-4.2,0-6.4,0c2.5,0.5,4.9,1,7.4,1.5c-62.5,1.1-125,1.8-187.6,2.5
			c-0.1,3.1-0.2,6.2-0.3,9.3c2.1,0,4.3,0.1,6.4,0.2c75.7,3.3,153.2-0.8,229-2c77.6-1.3,155.1-2.6,232.7-3.9
			c30.2-0.5,59.8-1.2,89.8-0.7c26,0.5,52.1,0.9,78.1,1.4c0.1-2.6,0.2-5.2,0.3-7.8C926.4,771.6,508,767.7,477.3,767.7z"/>
		<path fill="#D87E2C" d="M451.7,684.9c-20.3-0.8-41,2.5-61.2-1.8c-4.1-0.9-11,0.3-10.4-3.7c0.6-3.7,7.1-3.7,12.2-4
			c5.9-0.4,12.8,1.1,16.9-2.7c-1.8-0.1-3.6-0.2-5.5-0.3H296c-0.8,0.1-1.7,0.3-1.6,0.3c-0.5,0.1-1,0.2-1.5,0.4
			c-2.4,4.7-2.5,10.2-2.3,15.6c8.1,0.1,16.2,0.3,24.3,0.3c13.6,0.1,27.4-1.5,41-1.1c40.1,1.3,80.3,1.3,120.5,1.3
			C471.3,681.6,459.8,685.2,451.7,684.9z"/>
		<path fill="#D87E2C" d="M1049.1,989c-12.7,0.1-25.4,0.4-38,0.7c-61.7,1.6-123.4-0.1-185.1,1.3c-60.3,1.3-120.6,4.2-181,2.8
			c-44.9-1.1-89.7,1.3-134.4,1.2c-48.7,0-97.4-3.3-146.1-4c-24.7-0.4-49.3-2.1-74.1-2.1c0.1,1.2,0.1,2.3,0.2,3.5
			c61.2-0.1,122.3,1.1,183.4,4.1c31.1,1.5,62.4-0.3,93.7-0.9c87.8-1.6,175.6,1,263.4-1.5c44-1.3,88.1-0.3,132.2-0.3
			c27.3,0,54.6,0,81.9,0C1046.4,992.2,1047.7,990.6,1049.1,989z"/>
		<path fill="#D87E2C" d="M1054.9,981.8c-41.9,0-83.7,0-125.6-0.4c-87-0.8-173.7,3.1-260.6,3.1c-44,0-87.9-1.9-131.9,0
			c-10.5,0.5-20.9,1.6-31.9,0.9c-25.5-1.7-51.4-3.6-76.8-2.7c-43.7,1.5-87.2-1.3-130.8,0.2c-2.4,0.1-4.8,0.1-7.3,0.2
			c0,0.5,0.1,1,0.1,1.5c33.5-0.1,67-0.3,100.5,0.3c31.2,0.5,62.3,2.3,93.4,3.9c21.1,1.1,41.9-0.9,62.9-1
			c67.3-0.2,134.6,0.5,201.9-0.3c60.7-0.7,121.3-3.1,182.1-2.9c40.5,0.1,81,0.2,121.6,0.2C1053.3,983.8,1054.1,982.8,1054.9,981.8z"
			/>
		<path fill="#D87E2C" d="M1036.9,1002.9c1.2-1.3,2.4-2.6,3.5-3.9c-55.2-0.3-110.5,0.6-165.7,1c-17.5,0.1-35.1,0.5-52.6,0.8
			c-41.9,0.8-84,0.4-126,0.2c-25.1-0.1-50.3-1.1-75.4-0.8c-44.5,0.5-89,2.8-133.4,2.2c-25.3-0.3-50.9-1.8-76.3-2.7
			c-21.3-0.8-42.6,0.9-63.8-0.2c-18.8-1-37.6-1.2-56.4-1.1c0,0.5,0.1,1.1,0.1,1.6c0,0.7,0.1,1.5,0.1,2.2c7.5,0.2,14.9,0.3,22.4,0.3
			c71.1-0.3,142,2.9,213.1,3.3c18.8,0.1,37.6-1.2,56.4-1.3c92.9-0.9,185.9,1,278.9-1.2c55.5-1.3,111.2-0.4,166.8-0.4
			C1031.3,1002.9,1034.1,1002.9,1036.9,1002.9z"/>
		<path fill="#D87E2C" d="M1063.5,971.8c-12.3,0.3-24.6,0.8-36.8,1.5c-0.3,0-0.5,0.8-1.3,2.3c11.7,0,23.3,0,34.8,0
			C1061.3,974.3,1062.4,973.1,1063.5,971.8z"/>
		<path fill="#D87E2C" d="M934.8,882.8c-15.7,4.3-32,5.4-49.2,4.1c-6.4-0.5-7.9-2.2-7.8-5.4c16-3.9,33.1,0.4,49.3-2.3
			C932,878.5,934,880.3,934.8,882.8z"/>
		<path fill="#D87E2C" d="M289.3,883.2c47.2-0.2,94.5,0.4,141.7,1.9c97.4-0.3,195.1,2.1,292.5,0.4c-0.1,0.1-0.2,0.1-0.3,0.2
			c3.6,0.2,7.2,0.5,10.1-0.5c3.4-0.1,6.9-0.2,10.3-0.3c2.2,1.1,4.9,0.9,7.9-0.3c2-0.1,1.9-1.7,0-1.8c-91.3-6.1-185.2-4.2-277-5.4
			c-61.7-0.8-123.4-1.2-185.2-1.8V883.2z"/>
		<path fill="#D87E2C" d="M325.3,972.8c-12-0.2-24-0.5-36-0.7v3.4c54.4,0,108.8,0.4,163.1,3.1c37.7,1.9,75.2,0.4,112.8,0.1
			c64.6-0.5,129.2,0,193.8-0.3c17.6-0.1,35.1-1.4,56-2.3c-8.2-2.8-13.4-2.2-18.3-1.9c-30.2,2.3-60.7,1.7-91,2.5
			c-28.5,0.8-57.2-0.7-85.8-1.2c-51.3-0.9-102.6,2.9-153.8,0.3C419.2,973.5,372.3,973.7,325.3,972.8z"/>
		<path fill="#D87E2C" d="M525.4,968c15.5-2.1,30.9-2.1,46.5-0.2C556.3,966.7,540.9,971.8,525.4,968z"/>
		<path fill="#D87E2C" d="M579.1,967.7c1-0.4,2-0.7,3-1.1C581.1,967,580.1,967.4,579.1,967.7z"/>
		<path fill="#D87E2C" d="M1142.6,858.1c1.4-4,2.7-8.1,3.7-12.2c0.4-1.7,0.8-3.3,1-5c0,0,0,0,0,0c-15.5,0.4-30.9,0.7-46.4,1.1
			c-1.1-0.5-2.4-0.8-3.9-0.8c-59.1-0.9-118.7-1.7-177.5,1.6c-8.8-0.1-17.5-0.2-26.2-0.1c-1.1-0.3-2.2-0.3-2.6,0
			c-6.6,0.1-13.2,0.3-19.7,0.6c-0.6,0-1.2,0.1-1.7,0.2c-4.2-0.5-3.9,0.7-5.6,2.9c-0.2,0.3-0.3,0.5-0.5,0.8c-0.7,0.1-1.5,0.2-2.2,0.2
			c-6.5,0.2-13,0.4-19.4,0.6c-183.2,5.4-368.3,2.4-552,0.5c-0.1,3-0.1,6-0.3,9c25.2-0.1,50.4-0.2,75.5-0.3c1,0,2,0,3,0
			c40.6-0.2,80.9,2.2,121.6,2.4c37.7,0.2,75.3,0.3,112.9,0.2c58.9-0.2,117.8-0.7,176.9-1.4c1.3,0.7,3.2,1.2,5.6,1.2
			c14.7-0.3,29.4-0.6,44.1-1c1.3,1,3.3,1.6,5.9,1.4c11.2-0.6,22.4-1.4,33.5-2.4c4.8-0.1,9.5-0.2,14.3-0.3c1.7,0,3-0.3,4.2-0.8
			C972.1,857.8,1057.3,858.3,1142.6,858.1z"/>
		<path fill="#D87E2C" d="M1065.7,842.1L1065.7,842.1L1065.7,842.1z"/>
		<path fill="#D87E2C" d="M670.6,745.2c-6.1,1.1-10-0.1-13.9-1.1C660.9,743.7,665.2,743.1,670.6,745.2z"/>
		<path fill="#D87E2C" d="M1069.2,739.7c-39.4-0.8-78.9-1.6-118.3-2.4c-155.2-3.2-309.5-3.1-464.7-1.6c-40.3-2.1-80.6-4.2-120.9-6.4
			c-17.7-0.9-35.1-1.3-52.5-1.4c-6.9,1.7-13.9,3-21,3.2c0.4,0.4,0.7,0.9,0.7,1.6c-0.2,4.5-0.4,9-0.7,13.5
			c36.3,0.6,72.4,1.2,108.7,0.2c53.1-1.5,106.3-2.6,159.5-3.3c106.4-1.5,212.8-1.5,319.1,0c56.8,0.8,113.4,2.2,170.1,3.8
			c8.8,0.2,17.7,0.5,26.5,0.8C1073.5,745,1071.4,742.3,1069.2,739.7z M418.8,740.2c6.6,0.1,13.2,0.2,19.7,0.3
			C431.9,740.8,425.3,740.9,418.8,740.2z"/>
		<path fill="#D87E2C" d="M970.7,754c-1-0.4-1.9-0.8-2.9-1.1C968.7,753.3,969.7,753.7,970.7,754z"/>
		<path fill="#D87E2C" d="M1108.2,916.7c-55.7,0-111.4-0.1-167.2-0.2c-53.4-0.1-106.7-0.2-160.1-0.3c-62.3-0.1-122.9,0-185.1-2.3
			c-92.1-3.3-183.4,1.5-275.4,1.5c-4.8,0.2-9.6,0.3-14.5,0.4c-6,1-11.5,3-15.1,7.1c-0.6,0.7-1.1,1.5-1.6,2.3v0.5
			c7.4,0.1,14.7,0.1,22.1,0.1c74.6-0.1,149.3-1.8,223.9-2.7c0.1,0,0.2,0,0.3,0c31.9-1.1,65.6,1.3,97.6,1.7
			c12.4,0.1,24.9,0.3,37.3,0.4c144.7,1.2,289.4,0.3,433.9-3.4C1105.7,920.1,1106.9,918.4,1108.2,916.7z"/>
		<path fill="#D87E2C" d="M767,824.3c1,0,2,0,3,0C769,824.3,768,824.3,767,824.3z"/>
		<path fill="#D87E2C" d="M726.4,690c-11.3,0.4-22.7,0.8-33.8-1.3C704.1,687.2,715.6,685.5,726.4,690z"/>
		<path fill="#D87E2C" d="M669.5,688.6c-7.7,0-15.5,0-23.2,0C654,686.9,661.7,686.9,669.5,688.6z"/>
		<path fill="#D87E2C" d="M680.1,688.5c-2,0-3.9,0-5.9,0C676.2,686.5,678.1,686.5,680.1,688.5z"/>
		<path fill="#D87E2C" d="M638.7,688.6c-1,0-1.9,0.1-2.8,0.1C636.8,688.6,637.7,688.6,638.7,688.6z"/>
		<path fill="#D87E2C" d="M631,688.7c-1-0.4-2-0.8-2.9-1.1C629.1,687.9,630,688.3,631,688.7z"/>
		<path fill="#D87E2C" d="M731.1,806.1c1.7-0.6,3.9-1,5.1-1.9c6.5-4.9,11.9-4.4,18.1,1.7C746.7,808,738.9,807.7,731.1,806.1z"/>
		<path fill="#D87E2C" d="M1130.9,813.5l-507,3.3c-111.4,0.7-222.8,1.7-334.2,2.6c0,4.2,0,8.3,0,12.5c18.1-0.1,36.1-0.3,54.2-0.6
			c22-0.3,46.1-1,68.8-1.8c20.8-0.8,46-5,66.3-1.7c2.2,0.4,4.5,0.6,6.8,0.6c104.2,0.2,208.4-2.7,312.5-3.2
			c107-0.5,214-1.2,320.9-2.2c2.3,0,9-0.1,18.2-0.2C1135.3,819.5,1133.1,816.5,1130.9,813.5z"/>
		<path fill="#D87E2C" d="M954.1,794.8c-28.7-8.2-58.2-5.4-88.9-6c-32.3-0.7-64.8-0.7-97.2-0.5c-93,0.5-186.1,1.5-279.2,2.2
			c12.1-1.7,24.2-3.3,36.3-5c-15,2.2-34.9,0.3-50.5,0.6c-17.9,0.3-35.7,0.9-53.6,1.4c-37.8,1-75.6,2-113.5,1.6
			c-5.8-0.1-11.6-0.1-17.4-0.1c-0.1,4.9-0.2,9.8-0.3,14.7c5.1-0.1,10.2-0.3,15.3-0.7c2.5-0.2,5.1,0.2,7.6,0.4
			c22.9,1.8,44.1-0.8,66.7-1c26.5-0.2,53-0.3,79.4-0.5c53-0.3,105.9-0.7,158.9-1c-5.9-0.5-11.7-1-17.6-1.5
			C718.3,797.8,836.2,796.3,954.1,794.8z"/>
		<path fill="#D87E2C" d="M877.9,796.1c1.8-0.6,3.5-0.5,5.2,0.2C881.3,796.2,879.6,796.1,877.9,796.1z"/>
		<path fill="#D87E2C" d="M479.1,963.5c-5,1.8-9.7,2.1-13.4-1.2C470.4,962,475,961.8,479.1,963.5z"/>
		<path fill="#D87E2C" d="M415.2,960.9c-4.7,3.2-9.3,3.4-13.9-0.1C406,960.9,410.6,960.9,415.2,960.9z"/>
		<path fill="#D87E2C" d="M507.8,962.3c-1.9,2-3.9,2.1-6.1,0.2C503.7,962.5,505.8,962.4,507.8,962.3z"/>
		<path fill="#D87E2C" d="M651.5,963.4c-0.9-0.1-1.9-0.1-2.8-0.2C649.7,963.3,650.6,963.4,651.5,963.4z"/>
		<path fill="#D87E2C" d="M636.1,962.1c-1,0-1.9,0.1-2.9,0.1C634.2,962.1,635.2,962.1,636.1,962.1z"/>
		<path fill="#D87E2C" d="M289.3,962c2.5,0,5,0,7.5,0.1c11.2,0.1,22.4,0.2,33.6,0.3c1.7,0.4,3.5,0.4,5.2,0c4.1,0,8.1,0.1,12.2,0.1
			c16.9,0.1,34.3,1,51,0c2.3-0.1,3.3-2.4,0.6-2.6c-31.7-2.9-65.6-1.8-97.6-2.4c-4.2-0.1-8.4-0.2-12.6-0.2V962z"/>
		<path fill="#D87E2C" d="M569.2,785.9c-2.6-0.3-5.3-0.7-7.9-1C564,785.2,566.6,785.5,569.2,785.9z"/>
		<path fill="#D87E2C" d="M889.3,752.1c-25.8-0.2-52.2,0.5-78.3,0.3c-61.6-0.4-123,1.4-184.5,1.4c-33.7,0.8-67.5-1.4-101.4-1.4
			c-41.5,0-82.8,2.4-124.3,2.8c-36.6,0.4-73.1,0.9-109.6,1.5c-0.1,2.8-0.2,5.7-0.3,8.5c27.7-0.3,55.3-0.6,83-1
			c202-3,404.3-2.1,606.3-3.1C951.1,758.2,918.8,752.4,889.3,752.1z"/>
		<path fill="#D87E2C" d="M957.3,760.6c1,0.4,1.9,0.8,2.9,1.1C959.2,761.4,958.3,761,957.3,760.6z"/>
		<path fill="#D87E2C" d="M290.5,701.4c0.9-0.6,1.8-1.1,2.8-1.5c2.7-0.6,5.6-1,8.6-1.2c2.7-0.2,4.3-1.3,4.9-2.6
			c3.4-0.4,6.9-0.6,10.7-0.5c-1.8-0.6-3.6-1.3-5.4-1.9c-1.7,0-3.4,0.1-5.1,0.1c-0.6-2-3.1-3.8-7-3.6c-3.2,0.1-6.2,0.5-9.2,0.8
			C290.8,694.5,290.7,697.9,290.5,701.4z"/>
		<path fill="#D87E2C" d="M478.3,711.7c-35.6-0.2-71.2-0.2-106.8-0.3c-27.1-0.1-54.4,0.2-81.4-1.5c-0.1,2.8-0.2,5.9,0.9,8.4
			c0.1,0.2,0.2,0.4,0.3,0.5c16.4,0.9,32.9,1.1,49.4,1.2c1.8,0.5,4.3,0.8,7.6,0.9c4.2,0.1,8.1-0.3,11.9-0.9c0.4,0,0.8,0,1.2,0
			c35.6,0,71.2-0.1,106.8-0.1c72.6-0.1,146.3,0.8,218.7-2.5c0.5,0,1-0.1,1.3-0.3c2.7,0,5.3,0.1,8,0c59.1-1.6,119,1,178.3,2.1
			c13.3,0.3,29-0.1,36.7-6.5C766.7,709,622.5,711.7,478.3,711.7z"/>
	</g>
	<g>
		<path fill="#C76628" d="M1075.6,747.6c-34.7-1-62.1-2.1-68.8-2.3c-32.2-1-64.3-2.2-96.5-2.6c-77.8-1-155.5-1.8-233.3-1.7
			c-2,0-4,0-6,0c-94.4,0.2-187.8,3.6-282.2,4.4c-32.1,0.3-64.5,0.4-97,0.4c-0.2,3.9-0.4,7.9-0.5,11.8c10.9-0.4,21.7-0.8,32.5-1.4
			c47.2-2.3,95.5-1.9,142.9-2.8c134.1-2.7,268.4-0.1,402.5-1c10.6-0.1,21.2-1.1,31.8,0.2c24.9,3,55.1-0.1,80.6,0.1
			c32.1,0.3,64.1,0.5,96.2,0.7c0.8,0,1.7,0,2.5,0C1078.8,751.6,1077.2,749.6,1075.6,747.6z M656.7,744.2c4.3-0.5,8.6-1.1,13.9,1.1
			C664.5,746.4,660.6,745.1,656.7,744.2z"/>
		<path fill="#C76628" d="M1118.9,893.3c1.8,0,3.6,0.1,5.4,0.1c2.6-4.1,5.1-8.3,7.5-12.5c-53.4,0.5-106.8,1.7-160.2,2.4
			c-95.2,1.2-190.5,1.5-285.7,1.4c-48.2-0.1-96.3-0.2-144.5-0.4c-84-0.3-168.1-0.5-252.1,0.1v7.5c0.2,1.2,0.5,2.5,0.9,3.7
			c145.8,1.2,292,0.3,437.6-1.2c45.6-0.5,91.4,0.3,137.2,0.1C949.5,894.1,1034.3,891.5,1118.9,893.3z M453.7,891
			c24.9-2.8,49.6-2.3,74.2,0H453.7z"/>
		<path fill="#C76628" d="M1052.1,719.7c-7.8-0.1-13.2-0.2-15.2-0.3c-103.8-0.8-207.4-3.2-311.2-2.6c-145,0.8-290,1.4-435,1.1
			c0.1,0.2,0.1,0.3,0.2,0.5c1.4,3.2,5.3,3.7,8.6,3.9c6.2,0.3,12.3-0.5,18.5-0.6c3,0,3.5,3.9,0.7,4.7c-0.8,0.2-1.6,0.4-2.5,0.7
			c18.2-0.1,31.3-0.2,37.6-0.2c10.2-0.1,20.4-0.1,30.7-0.2c131.4-0.8,262.6-1.6,394-1.2c92.8,0.3,186.2,0.8,279.7,1.2
			C1056.2,724.3,1054.1,722,1052.1,719.7z"/>
		<path fill="#C76628" d="M1140.2,827.2c-1.3-2-2.5-4-3.7-5.8c-170.1,1.6-340.2,3.3-510.4,4.9c-47,0.5-94,0.9-141,1.4
			c-23.5,0.2-47,0.5-70.5,0.7c-19.7,0.2-37.4,2.9-57.2,2.8c-22.6-0.2-45.1-0.1-67.7-0.1c0,3.2,0,6.4-0.1,9.6
			c63.8-0.6,127.6-2.1,191.4-1.7c46.2,0.3,92.4-0.1,138.5-2.8c105.3-6.1,211.2-4,316.8-3.1c69.1,0.6,138.2,0.4,207.3-0.2
			C1142.6,831.2,1141.5,829.3,1140.2,827.2z"/>
		<path fill="#C76628" d="M1101.9,925.1c1.2-1.5,2.3-3.1,3.5-4.6c-86,2.1-172.8,5.6-258,4.8c-93.9-0.9-189.9-1.9-284.7-2.8
			c-48-0.5-96-0.9-144-1.3c-41.9-0.3-83.7-0.4-125.6-0.3c-0.8,0.6-1.5,1.3-2.2,2c-0.6,0.7-1.1,1.5-1.6,2.3v5.4
			c32.5,0.4,65,0.5,97.5,1.5c72.3,2.3,144.6-1,216.9-0.6c36.7,0.2,73.5,2.4,110.2,2.1c53.4-0.5,106.8-0.4,160.2-1.5
			c34-0.7,68.2-0.9,102.3-1.4c40.7-0.7,81.5,0.3,122.2-1.2C1099.5,928.2,1100.3,927.2,1101.9,925.1z"/>
		<path fill="#C76628" d="M293.5,1018.9c0.1,0.2,0.1,0.4,0.2,0.6h41.2c-11.6-0.2-23.2-0.4-34.7-0.6
			C297.9,1018.9,295.7,1018.9,293.5,1018.9z"/>
		<path fill="#C76628" d="M1114.1,793.3c-162.6,1.9-325.3,3.8-487.9,5.7c-41.7,0.5-83.3,1-125,1.5c-70.5,0.8-140.9,1.3-211.3,1.5
			c0,1.3-0.1,2.6-0.1,4c0,1.7,0,3.5-0.1,5.2c48.6-0.3,83.9-0.6,95.2-0.7c85.5-1,171.1-2.4,256.6-4.1c38.5-0.8,76.4-2.8,115.4-2.6
			c42,0.2,84,0.8,126.1,0.5c79.7-0.5,159.4-1,239.2-1.6C1119.6,799.5,1116.9,796.4,1114.1,793.3z"/>
		<path fill="#C76628" d="M1141.2,861.6c0.4-1,0.8-2.1,1.2-3.1c0.5-1.5,1.1-3,1.6-4.6c-4.9,0-9.9,0-14.8,0
			c-46.8-0.2-93.5-0.3-140.3-0.2c-46.9,0.1-93.8,0.5-140.7,1.4c-106.8,2-213.7,3.2-320.6,3.6c-79.1,0.3-159-1.6-238.3-1.2
			c0,0.2,0,0.4,0,0.6v7.4c123.4,1.2,246.9,2.2,369.8-0.5C819.2,861.6,980.4,860.7,1141.2,861.6z"/>
		<path fill="#C76628" d="M1086.2,945.4c1.6-2.2,3.3-4.3,5-6.4c-8,0.2-16.1,0.4-24.1,0.7c-25.8,0.8-51.5,1.8-77.2,2.8
			c-92.1,3.6-184.8,0.1-277.1,0.1c-106.8,0-213.6,0-320.3,0c-34.4,0-68.7-0.3-103-0.5v6.5c29.9,0.2,59.9,0.5,89.8,1
			c23.4,0.4,46.8,0.9,70.1,1.6c36.3,1.1,72.7,0.2,109.1-0.9c58.7-1.9,117.3,2.3,176,1.3c82.5-1.5,165.1-3.7,247.6-3.7
			c34.2,0,68.4-0.1,102.6-0.1C1085.1,946.9,1085.6,946.1,1086.2,945.4z"/>
		<path fill="#C76628" d="M1102.6,780.4c-1-1.1-2-2.3-2.9-3.4c-35.3,0-70.6,0-105.9,0.7c-14.9,0.3-29.6-2.6-44.7-2.2
			c-48.6,1.4-96.6-0.7-145,0l-22.5,0.3c-46.1,0.6-92.2,1.3-138.3,1.9c-107.2,1.5-214.3,2.9-321.5,4.4c-8.7,0.1-16.4-0.6-25-0.9
			c-2.2-0.1-4.3-0.1-6.4-0.2c-0.1,2.6-0.2,5.3-0.2,7.9c5.8,0,11.6,0,17.4,0.1c132.5,1.5,264.7-6.1,397.2-5.5
			c133.4,0.6,266.9,0.2,400.4-0.2C1104.4,782.3,1103.5,781.3,1102.6,780.4z"/>
		<path fill="#C76628" d="M1026.4,691.2c-5.9,0-11.9,0-17.8-0.1c-211-2.9-421.8-2.7-632.8-2.8c-28.4,0-56.7-0.2-85.1-0.4
			c0,0.2,0,0.5,0,0.7c0.1,2.2,0.1,4.4,0,6.6c58.8-0.2,117.5-0.3,176.6,1c26.4,0.8,52.8,0.6,79.4-0.6c146.6-6.5,293.1,5,439.7,0.8
			c15.2-0.4,30.3,0.1,45.4,0.6C1030,695.2,1028.2,693.2,1026.4,691.2z"/>
		<path fill="#C76628" d="M1087.3,762.2c-60.4,0.1-120.8,0.2-181.1,0.3c-93.4,0.1-186.9,0.3-280.3,0.4
			c-60.9,0.1-121.8,0.2-182.7,0.3c-50.9,0.1-101.5,1.3-152.2,2.3c-0.1,2.1-0.1,4.1-0.2,6.2c174.4-1.9,349.6-3.8,524.2-3.5
			c92.5,0.1,185,0.3,277.5,0.4C1090.8,766.4,1089.1,764.3,1087.3,762.2z"/>
		<path fill="#C76628" d="M1069.9,964.5c2-2.3,4.1-4.5,6.2-6.8c-16,0.2-31.9,0.8-47.8,0.7c-53.4-0.1-106.8,2.6-160.2,3.4
			c-32.9,0.5-66-0.6-98.8-0.1c-39.2,0.5-78.4,2-117.7,1.8c-0.9-0.1-1.9-0.1-2.8-0.2c-4.2-0.4-8.4-0.8-12.6-1.2c-1,0-1.9,0.1-2.9,0.1
			c-41.8,0.1-83.6,0.1-125.4,0.1c-1.9,2-3.9,2.1-6.1,0.2c-7.5,0.3-15,0.6-22.5,0.9c-5,1.8-9.7,2.1-13.4-1.2
			c-16.8-0.5-33.7-0.9-50.5-1.4c-4.7,3.2-9.3,3.4-13.9-0.1c-7.5-0.1-15-0.2-22.6-0.2c-7.8,2.1-15.6,2-23.4,0c-4.2,0-8.4,0-12.7,0
			c-5.3,1-10.5,4-15.8,0c-5.9-0.3-11.8-0.8-17.7-0.8c-6.6,0-13.3-0.1-19.9-0.1v5.1c37.2,0,74.3,0.4,111.5,1.7
			c41.5,1.4,83.1,1.7,124.6,1.5c15.5-2.1,30.9-2.1,46.5-0.2c2.4,0,4.9,0,7.3,0c1-0.4,2-0.7,3-1.1c26,1,52.1,1.3,78.1,2.1
			c27.9,0.8,55.6-0.1,83.3-0.5c30.4-0.5,60.7-3.2,91-3.2C913,965.1,991.4,964.5,1069.9,964.5z"/>
		<path fill="#C76628" d="M1030.4,1009.6c0.7-0.6,1.3-1.3,2-1.9c-29.7,0-59.5,0.7-89.2,0.9c-34.1,0.3-68.5,1.7-102.4,1.1
			c-52.6-1-105.1,1-157.7,0c-47.3-0.9-94.9-1.4-142.4,0.8c-43.8,2-87.7-0.9-131.5-1.5c-36.8-0.5-73.6-1-110.3-1.7
			c-2.5-0.1-5,0-7.5,0c0.2,2.1,0.4,4.2,0.8,6.2c7.3-0.1,14.7-0.1,22-0.2c66.4-0.9,132.6,3.7,198.7,2.7
			c110.1-1.7,220.1,0.4,330.1-1.5c50.9-0.9,101.9-1.4,152.7-1.9c10.1-0.1,20.3-0.2,30.5-0.3
			C1027.3,1011.1,1028.7,1010.2,1030.4,1009.6z"/>
		<polygon fill="#C76628" points="432.6,781.5 432.3,781.2 432.8,781.4 		"/>
	</g>
</g>
<g>
	<path fill="#11304C" d="M527,604.3v13.6c4.2-1.7,254.8-66,258.8-67.1c4-1.2,7.8-2.3,11.3-3.4c3.5-0.9,6.2-0.8,8,0.4
		c1.8,1.2,3,3.1,3.4,5.6c0.4,2.5,0.3,5.4-0.4,8.6c-0.7,3.2-1.9,6.4-3.5,9.4c-1.6,3.1-3.5,5.8-5.8,8.2c-2.3,2.4-4.7,3.9-7.3,4.5
		c-3.4,0.8-253,64.4-255.9,65.2c-3,0.8-6,1.7-8.9,2.6c-0.7,13.2-2.2,26.5-4.3,39.9c-2.1,13.4-5.6,25.9-10.4,37.4
		c-4.8,11.5-11.3,21.4-19.5,29.8c-8.2,8.3-18.8,13.9-31.8,16.8c-7.7,1.7-14.7,1.9-20.9,0.6c-6.2-1.3-11.5-3.9-15.9-7.6
		c-4.4-3.8-7.7-8.6-10.1-14.5c-2.3-5.9-3.5-12.7-3.5-20.3c0-11.4,2.3-22,7-31.8c4.7-9.8,10.8-18.9,18.4-27.3
		c7.6-8.4,16.3-16,26.1-22.8c9.8-6.8,19.9-12.9,30.2-18.3v-5v-62c-4.7,8.8-9.6,17.2-14.9,25.1c-5.3,8-10.8,15.1-16.5,21.4
		c-5.8,6.3-11.7,11.6-17.9,15.8c-6.1,4.2-12.4,7-18.8,8.5c-3.2,0.7-6.6,0.8-10.2,0.3c-3.6-0.5-6.9-1.9-9.9-4.3
		c-3-2.3-5.5-5.8-7.5-10.3c-2-4.5-3-10.5-3-18V352.8c-10.1,3.6-19.6,8.5-28.6,14.9c-9,6.4-16.8,14.1-23.4,23.2
		c-6.6,9.1-11.9,19.5-15.8,31.1c-3.9,11.7-5.8,24.6-5.8,38.8c0,9.1,0.9,17,2.8,23.8c1.9,6.8,4.2,12.4,6.8,16.9s5.3,7.8,7.9,10
		c2.6,2.2,4.7,3.1,6.1,2.8c1.3-0.3,2.6-0.9,3.7-1.7c1.2-0.8,2.3-1.4,3.5-1.7c2.3-0.5,3.5,1,3.5,4.7c0,4.7-1.1,9.4-3.2,14.2
		c-2.1,4.8-4.8,8.9-8,12.3c-3.2,3.4-6.7,5.9-10.5,7.5c-3.8,1.6-7.3,1.6-10.5-0.1c-3.9-1.7-8.1-4.8-12.6-9.2
		c-4.5-4.4-8.5-10-12.3-16.9c-3.7-6.8-6.8-14.8-9.2-23.9c-2.4-9.1-3.6-19.4-3.6-30.8c0-15.8,1.9-30.3,5.7-43.7
		c3.8-13.3,8.9-25.4,15.2-36.2c6.4-10.8,13.8-20.4,22.2-28.9c8.5-8.5,17.4-15.8,26.7-22c9.3-6.2,18.8-11.3,28.5-15.2
		c9.6-4,18.8-6.9,27.6-8.9c2.3-0.5,4.6-0.6,6.8-0.1c2.2,0.5,4.1,1.4,5.7,2.7c1.6,1.3,2.9,3,3.9,5.1c1,2.1,1.5,4.5,1.5,7.1V595
		c0,2.9,0.5,4.6,1.4,5.1c0.9,0.4,1.9,0.6,2.7,0.4c2.2-0.5,5.2-2.7,9-6.7c3.8-4,7.9-9.1,12.4-15.3c4.5-6.2,8.9-13.2,13.5-21
		c4.5-7.8,8.6-15.8,12.3-23.9c3.7-8.1,6.6-16.1,9-23.9c2.3-7.8,3.5-15,3.5-21.4V317.8c0-4.2-0.3-7.2-0.9-9c-0.6-1.8-0.9-3.5-0.9-5.1
		c0-2.2,1.1-4.3,3.4-6.2c2.3-2,5-3.3,8.2-4c7.5-1.7,13.5-1.1,18.2,1.7c4.7,2.8,7,7,7,12.6V604.3z M461.4,741c5-1.1,9.2-3.9,12.7-8.3
		c3.5-4.4,6.4-10,8.8-16.8c2.3-6.7,4.1-14.3,5.4-22.7c1.2-8.4,2.2-17.1,2.7-26.1c-14.9,7.9-26.3,16.7-34.1,26.6
		c-7.8,9.9-11.7,20.4-11.7,31.7c0,6.9,1.6,11.4,4.7,13.7C453.1,741.4,456.9,742,461.4,741z"/>
	<path fill="#11304C" d="M678.5,526.1c4.5-1,8.4-3.5,11.7-7.4c3.3-3.9,6.1-8.6,8.5-14c2.4-5.4,4.4-11,5.9-17
		c1.5-6,2.8-11.5,3.8-16.7c1-4.9,2.5-8.6,4.5-11.2c2-2.6,4.1-4.1,6.5-4.6c1.8-0.4,3.5-0.2,5.4,0.4c1.8,0.7,3.5,1.7,5,3.1
		c1.5,1.4,2.8,3.1,3.7,5.1c0.9,2,1.4,4.1,1.4,6.3c0,0.3,0,0.7,0,1.1c0,0.4-0.1,1.1-0.4,2.1c-1.9,7.9-4.5,16.3-7.8,25.2
		c-3.3,8.9-7.5,17.4-12.6,25.4c-5.1,8-11.3,15.1-18.5,21.2c-7.2,6.1-15.7,10.3-25.3,12.4c-7.9,1.8-14.8,1.6-20.6-0.4
		c-5.8-2.1-10.4-5.5-13.8-10.3c-4.5,6.1-10,11.7-16.3,16.7c-6.4,5-13.8,8.4-22.2,10.3c-8.8,2-16.5,1.9-23.1-0.1
		c-6.6-2-12.2-5.6-16.8-10.6c-4.5-5-7.9-11.5-10.2-19.2c-2.3-7.7-3.4-16.4-3.4-25.9c0-18.7,3-36.2,9-52.4c6-16.2,14-30.7,23.9-43.4
		c9.9-12.7,21.3-23.2,34.1-31.6c12.8-8.4,26-14.1,39.8-17.2c6.1-1.4,11.1-0.8,14.9,1.7c3.8,2.5,5.7,6.7,5.7,12.5
		c0,3.8-0.4,6.6-1.2,8.3c-0.8,1.7-2.3,2.8-4.5,3.3c-2,0.5-4.2,0.8-6.4,1c-2.2,0.2-4.5,0.6-6.8,1.1c-8.5,1.9-17.1,5.7-25.9,11.4
		c-8.8,5.7-16.7,13.1-23.8,22.4c-7.1,9.3-12.9,20.3-17.4,33c-4.5,12.8-6.8,27.3-6.8,43.5c0,11.8,2.3,20.4,6.8,25.8
		c4.5,5.3,10.7,7.1,18.6,5.4c6.1-1.4,11.2-4.8,15.3-10.3c4.1-5.5,7.4-11.7,9.9-18.5v-69.3c0-2.2-0.1-4-0.3-5.4
		c-0.2-1.4-0.4-2.6-0.7-3.6c-0.2-1-0.4-1.8-0.5-2.6c-0.1-0.8-0.2-1.5-0.2-2.3c0-2.3,1.1-4.5,3.4-6.3c2.3-1.9,5-3.2,8.2-3.9
		c7.5-1.7,13.4-1,17.8,1.8c4.4,2.9,6.6,7,6.6,12.4v74.1c0,2.5,0.3,4.9,0.9,7.1c0.6,2.3,1.5,4.3,2.6,6c1.2,1.7,2.7,3,4.7,3.8
		C673.5,526.6,675.8,526.7,678.5,526.1z"/>
	<path fill="#11304C" d="M808.2,526.8c-5.3,1.2-10.6,1.6-16.1,1.2c-5.5-0.4-10.4-2.1-14.9-5c-4.5-3-8.1-7.4-11-13.2
		c-2.8-5.9-4.3-13.8-4.3-23.7c0-14.5,1.9-30.2,5.8-47.2c3.9-17,9.5-36,16.8-57.1l-34.2,7.6l-5,1.1c-0.1,4.4-0.4,10-0.8,16.8
		c-0.4,6.8-1,14.1-1.9,21.9c-0.9,7.8-2,15.7-3.4,23.8c-1.4,8.1-3.1,15.6-5.2,22.6c-1.5,5-3.8,8.2-6.9,9.6c-3.1,1.4-6.2,1.6-9.3,0.4
		c-3.1-1.1-5.6-3.3-7.5-6.3c-1.9-3.1-2.3-6.6-1.3-10.7c1.2-4.8,2.2-10.5,3.1-17.2c0.9-6.7,1.6-13.7,2.1-21.1
		c0.5-7.3,0.9-14.7,1.2-22c0.3-7.3,0.5-13.8,0.7-19.5c-5.6-1.8-10.2-4.7-13.8-8.6c-3.7-3.9-5.5-9.2-5.5-15.8c0-3.1,0.6-6,1.9-8.9
		c1.2-2.8,2.9-5.4,4.9-7.7c2-2.3,4.5-4.2,7.2-5.8c2.8-1.6,5.6-2.7,8.5-3.3c2.6-0.6,5.4-0.8,8.2-0.7c2.8,0.1,5.6,0.8,8.1,2.1
		c2.6,1.3,4.9,3.3,6.9,5.9c2,2.6,3.7,6,5,10.3c3.7-0.4,6.8-0.7,9.3-1.1c2.6-0.4,4.7-0.6,6.5-0.9c1.8-0.2,3.2-0.5,4.4-0.8
		c1.2-0.3,2.3-0.5,3.5-0.8l23.4-5.2c1.3-0.3,3.2,0.1,5.8,1.1c2.6,1,5.1,2.6,7.6,4.6c2.5,2,4.6,4.3,6.2,6.8c1.7,2.5,2.3,5.2,1.9,7.9
		c0,0.9-0.5,3.1-1.5,6.7c-1,3.6-2.3,8.1-3.7,13.5c-1.5,5.4-3.1,11.7-4.8,18.7c-1.8,7-3.4,14.4-4.8,22c-1.5,7.6-2.7,15.5-3.7,23.5
		c-1,8-1.5,15.8-1.5,23.2c0,3.1,0.4,6,1.1,8.7c0.7,2.8,1.8,5.1,3.3,7c1.5,1.9,3.3,3.3,5.6,4.1c2.3,0.8,4.9,0.9,8,0.2
		c5.1-1.1,9.5-3.7,13.1-7.8c3.7-4,6.7-8.7,9.2-14.1c2.5-5.4,4.5-11,6-17c1.5-6,2.8-11.5,3.8-16.7c0.9-4.9,2.3-8.6,4.4-11.2
		c2-2.6,4.2-4.1,6.4-4.6c1.8-0.4,3.6-0.3,5.5,0.4c1.9,0.7,3.6,1.7,5.2,3.1c1.5,1.4,2.8,3.1,3.7,5.1c0.9,2,1.4,4.1,1.4,6.3
		c0,0.7-0.1,1.3-0.2,1.8c-0.1,0.5-0.2,0.9-0.2,1.4c-2,7.9-4.7,16.3-8,25.2c-3.3,8.9-7.5,17.4-12.6,25.4c-5.1,8-11.3,15.1-18.4,21.2
		C826.2,520.5,817.8,524.6,808.2,526.8z"/>
	<path fill="#11304C" d="M898.5,506.6c-8.8,2-16.7,2.2-23.9,0.7c-7.2-1.5-13.3-4.7-18.3-9.6c-5-4.9-8.9-11.6-11.6-20
		c-2.7-8.4-4.1-18.5-4.1-30.3c0-17.2,2.4-33.2,7.2-47.7c4.8-14.6,11.4-27.7,19.7-39.2c8.3-11.6,18-21.5,28.9-29.7
		c11-8.2,22.6-14.6,34.8-19.1V210.2c0-3.2-0.3-5.7-0.8-7.5c-0.5-1.8-1-3.2-1.5-4.2c-0.5-1-1-1.7-1.5-2.3c-0.5-0.5-0.8-1.2-0.8-1.9
		c0-0.9,0.4-1.7,1.3-2.5c0.9-0.8,2-1.6,3.5-2.3c1.5-0.8,3-1.4,4.7-2c1.7-0.6,3.3-1.1,4.9-1.4c7.5-1.7,13.3-1,17.6,1.9
		c4.3,2.9,6.5,7.1,6.5,12.5v241.1c0,2.5,0.3,4.9,0.9,7.1c0.6,2.3,1.5,4.3,2.7,6c1.2,1.7,2.8,2.9,4.8,3.7c2,0.8,4.3,0.9,6.9,0.3
		c4.5-1,8.4-3.5,11.7-7.4c3.3-3.9,6.1-8.6,8.5-14c2.4-5.4,4.4-11,5.9-17c1.5-6,2.8-11.5,3.8-16.7c0.9-4.9,2.3-8.6,4.4-11.2
		c2-2.6,4.2-4.1,6.4-4.6c1.8-0.4,3.6-0.3,5.5,0.4c1.9,0.7,3.6,1.7,5.1,3.1c1.5,1.4,2.8,3.1,3.7,5.1c0.9,2,1.4,4.1,1.4,6.3
		c0,0.3,0,0.7,0,1.1c0,0.4-0.1,1.1-0.4,2.1c-1.9,7.9-4.5,16.3-7.8,25.2c-3.3,8.9-7.5,17.4-12.7,25.4c-5.2,8-11.4,15.1-18.5,21.2
		c-7.2,6.1-15.6,10.3-25.2,12.4c-7.7,1.7-14.5,1.6-20.4-0.3c-5.8-1.9-10.4-5.1-13.8-9.6c-5,6.2-10.7,11.7-17.2,16.4
		C914.7,501.3,907.1,504.7,898.5,506.6z M905.3,475.5c5.8-1.3,10.9-4.1,15.2-8.4c4.3-4.3,7.9-9.3,10.8-14.9V341.3
		c-7.3,2.9-14.4,7-21.1,12.1c-6.8,5.1-12.8,11.4-18,19c-5.2,7.6-9.3,16.7-12.4,27.2c-3.1,10.5-4.6,22.8-4.6,36.9
		c0,8.2,0.8,15,2.5,20.4c1.7,5.4,3.9,9.6,6.6,12.7c2.7,3.1,5.9,5,9.5,6C897.5,476.4,901.3,476.4,905.3,475.5z"/>
</g>
<g>
	<g opacity="0.59">
		<path fill="#99400E" d="M426.1,952.4c-11.3-12.2-17.3-31.7-18.1-58.4l45.7-6.9c0.2,15.3,2,26.3,5.5,33c3.5,6.7,8.7,10,15.7,10
			c9,0,13.4-5.9,13.4-17.6c0-9.4-2.1-17.4-6.4-24.2c-4.3-6.8-11-14-20.2-21.8l-20.9-18.2c-10.4-8.8-18.4-18.1-24-27.9
			c-5.7-9.9-8.5-21.6-8.5-35.1c0-20.3,6-35.9,18.1-46.9c12-11,28.6-16.4,49.7-16.4c22.9,0,38.5,6.7,46.8,20
			c8.3,13.3,12.7,29.6,13.3,48.7l-46,5.7c-0.4-12.5-1.5-21.6-3.4-27c-1.9-5.5-6-8.2-12.4-8.2c-4.6,0-8.1,1.9-10.6,5.8
			c-2.5,3.9-3.7,8.2-3.7,13c0,8.2,1.8,15,5.5,20.6c3.7,5.6,9.6,11.9,17.8,19.1l20,17.6c11.9,10.2,21.2,20.9,27.8,32.3
			s9.9,24.8,9.9,40.3c0,11.4-2.6,21.7-7.9,30.9c-5.3,9.3-12.7,16.6-22.3,22c-9.6,5.4-20.6,8.1-33.2,8.1
			C454.5,970.8,437.3,964.7,426.1,952.4z"/>
		<path fill="#99400E" d="M612.5,725.3h60.9l45.1,242h-49.3l-8.1-51.1h-35.5l-8.4,51.1h-50.5L612.5,725.3z M656.1,884.2l-12.8-94.4
			l-12.8,94.4H656.1z"/>
		<path fill="#99400E" d="M748.9,725.3h53.5v205.8h55.6v36.1h-109V725.3z"/>
		<path fill="#99400E" d="M893.1,725.3h108.7v36.4h-55.3v60h42.1v37h-42.1v72.3h55.9v36.1H893.1V725.3z"/>
	</g>
	<g>
		<path fill="#FFFFFF" d="M416.1,943.8c-11.3-12.2-17.3-31.7-18.1-58.4l45.7-6.9c0.2,15.3,2,26.3,5.5,33c3.5,6.7,8.7,10,15.7,10
			c9,0,13.4-5.9,13.4-17.6c0-9.4-2.1-17.4-6.4-24.2c-4.3-6.8-11-14-20.2-21.8l-20.9-18.2c-10.4-8.8-18.4-18.1-24-27.9
			c-5.7-9.9-8.5-21.6-8.5-35.1c0-20.3,6-35.9,18.1-46.9c12-11,28.6-16.4,49.7-16.4c22.9,0,38.5,6.7,46.8,20
			c8.3,13.3,12.7,29.6,13.3,48.7l-46,5.7c-0.4-12.5-1.5-21.6-3.4-27c-1.9-5.5-6-8.2-12.4-8.2c-4.6,0-8.1,1.9-10.6,5.8
			c-2.5,3.9-3.7,8.2-3.7,13c0,8.2,1.8,15,5.5,20.6c3.7,5.6,9.6,11.9,17.8,19.1l20,17.6c11.9,10.2,21.2,20.9,27.8,32.3
			s9.9,24.8,9.9,40.3c0,11.4-2.6,21.7-7.9,30.9c-5.3,9.3-12.7,16.6-22.3,22c-9.6,5.4-20.6,8.1-33.2,8.1
			C444.5,962.1,427.3,956,416.1,943.8z"/>
		<path fill="#FFFFFF" d="M602.5,716.6h60.9l45.1,242h-49.3l-8.1-51.1h-35.5l-8.4,51.1h-50.5L602.5,716.6z M646.1,875.5l-12.8-94.4
			l-12.8,94.4H646.1z"/>
		<path fill="#FFFFFF" d="M738.9,716.6h53.5v205.8h55.6v36.1h-109V716.6z"/>
		<path fill="#FFFFFF" d="M883.1,716.6h108.7V753h-55.3v60h42.1v37h-42.1v72.3h55.9v36.1H883.1V716.6z"/>
	</g>
</g>
<g>
	<circle fill="#11304C" cx="906.4" cy="602.7" r="77.3"/>
	<text transform="matrix(1 0 0 1 853.5254 596.0696)"><tspan x="0" y="0" fill="#FFFFFF" font-family="'Oswald-Bold'" font-size="42.8649" letter-spacing="2">8AM-</tspan><tspan x="0" y="47.6" fill="#FFFFFF" font-family="'Oswald-Bold'" font-size="42.8649" letter-spacing="2">10PM</tspan></text>
</g>
<path fill="#F5FEFF" d="M1010.7,611.8c-1.4-10.1,5.3-19.9,14-25.2c8.7-5.3,19-7,29.1-8.5c-4.4-22.8,16.8-46.7,39.9-45.3
	s41.1,27.9,33.8,50c4.2-10.9,17.7-17.1,28.7-13.4c11.1,3.7,17.9,16.8,14.7,28.1c5.1-9.3,17.9-13.6,27.6-9.2
	c9.7,4.4,14.9,16.8,11.3,26.8c15-11.2,28.2-1.5,33.2,14.5c1,12-118.2,5.9-186.9,5.5c-9.3-0.1-18.9-0.2-27.6-3.5
	C1019.9,628.3,1012.1,621.1,1010.7,611.8z"/>
<path fill="#F5FEFF" d="M734.1,265.3c-5.5-1.5-11.3-0.3-16.9,0.9c11.1-9.4,10-29.4-2-37.5c-10.6-7.2-26.7-2.9-33.4,7.8
	c5.2-13.7,0.8-30.8-10.9-39.7c-13-10-33.4-8.7-45,2.9c-11.6,11.6-13,31.9-3,45c-10.3-0.5-21.1-0.3-30.3,4.2
	c-0.2,0.1-0.4,0.2-0.6,0.3c-12.3,9.9-12.1,33.7,2.8,40.9c1.2,0.6,1.7,1.5,1.7,2.4c1.7,0.8,3.5,1.4,5.2,2
	c40.3,13.6,84.3,4.2,125.8-5.3c6.9-1.6,15.2-4.6,16.2-11.6C744.6,272,739.6,266.8,734.1,265.3z"/>
<path fill="none" d="M1461.1,726.2c1.3,1.3,2.7,2.7,4,4"/>
<g>
	<path fill="#09BA55" d="M85.2,1295.3c-8.6-15.8-8.8-34.9-5.9-52.6c5.3-31.6,22.6-63.6,52.4-75.9s70.9,4.6,75.1,36.4
		c9.6-54.7,71.2-94.2,125.1-80.1c53.9,14.1,88.1,78.7,69.5,131c-2.8-19,12.1-38.1,30.7-42.9c18.7-4.8,39.2,3.1,52.5,17.1
		c13.2,14,19.7,33.3,21.3,52.5c2.1,25.2-6.2,54-28.8,65.4c-10,5-21.5,6-32.7,6.9c-102,8.1-207.7,15.7-304-18.8
		C118.6,1326.6,96.2,1315.5,85.2,1295.3z"/>
	<path fill="#0AEA65" d="M682.8,1400c7-50-2-102.9-31.6-143.7c-33.4-46-95.2-72.7-149.9-57c-49.1,14.1-85.6,65.8-80.2,115.4
		c-10.1-32-37.8-58.7-71.1-62.5c-37.5-4.2-76.6,25.9-78.8,63c-0.4-31.7-23-62.3-53.6-71.4c-32.2-9.6-70,5.5-86.7,34.5
		c14.9-34.4,5.5-77.7-22.3-102.9c-29.4-26.5-78.9-29.1-108.6-3.5V1400H682.8z"/>
	<path fill="#09BA55" d="M738.1,1357.9c13,12.2,31.8,17.8,50,22.2c43.8,10.7,88.8,17.3,134.1,19.8h82.2c1.7-0.1,3.5-0.2,5.2-0.3
		c21.8-44.3,31.1-93.4,26.8-141.7c-1.8-20.2-6.1-40.8-18-58.1c-11.8-17.3-32.3-30.8-54.9-31.2c-21-0.4-40.9,10.7-53.7,25.6
		c-12.9,14.9-19.6,33.4-24.1,51.9c-6.7-22.9-26.5-42.4-51.2-50.5c-24.7-8.2-53.8-4.8-75.5,8.7c-35,21.9-45.8,64.8-41.9,103
		C718.9,1325.7,723.9,1344.7,738.1,1357.9z"/>
	<path fill="#09CC61" d="M1400,1136.8c-16.8-16-42.2-20.5-65.4-17.5c-24.9,3.3-49,14.9-64.9,34.3c-15,18.2-21.7,43.6-15.6,66.3
		c-13-38.9-60.2-63.4-99.6-50.6c-40.7,13.2-64.7,63.6-49.1,103.4c-23.2-38.5-71.7-60-115.9-51.4c-44.2,8.5-81.1,46.5-88.3,90.8
		c-5,31,4.8,63.6,24.5,87.9H1400V1136.8z"/>
	<path fill="#1DFF78" d="M1048.8,1400c-2.6-11.8-8.3-22.9-16.8-31.5c-21.6-21.8-59.2-25.3-84.5-8c1.4-29.6-21.3-58.5-50.4-64.4
		c-29.2-5.9-61.3,12-71.5,39.9c-4.1-40.6-34.9-79.9-75.5-84.3c-42.2-4.6-81.1,28.7-97,67.9c-10.3,25.4-13.2,52.7-13.5,80.3H1048.8z"
		/>
</g>
</svg>
